<svg xmlns="http://www.w3.org/2000/svg" width="px" height="px" viewBox="0 0 2000 2000"><defs><clipPath id="a"><path d="M836 310.602h169.2V529.3H836Zm0 0"/></clipPath><clipPath id="b"><path d="M628.7 310.602H877V529.3H628.7Zm0 0"/></clipPath><clipPath id="c"><path d="M981 1474h892v236H981Zm0 0"/></clipPath><clipPath id="d"><path d="M1872.5 1474.648c0 129.75-105.2 234.903-234.898 234.903h-469.204c-129.75 0-234.898-105.2-234.898-234.903Zm0 0"/></clipPath></defs><path d="M582.398 290.398h457.5v259h-457.5Zm0 0" style="stroke:none;fill-rule:nonzero;fill:#8982bc;fill-opacity:1"/><path d="M594 290.398h445.898v259H594Zm0 0" style="stroke:none;fill-rule:nonzero;fill:#c4b9ff;fill-opacity:1"/><path d="M628.7 310.602h376.5V529.3H628.7Zm0 0" style="stroke:none;fill-rule:nonzero;fill:#ddd6ff;fill-opacity:1"/><g clip-path="url(#a)"><path d="M2088.602 842.398c-44.399 32-113.899 20.5-145.805-24-26.5-37-26-86-34.797-130.601-22.297-113.695-116.203-210-229.297-235.297m139.594 690.703c-46.297-7.101-85-48.906-88.594-95.601-3.601-46.704 28.399-93.805 73.195-107.805 33.602-10.5 70-3.5 103.899 5.805 33.906 9.296 68 21.101 103.203 19.898 35.203-1.203 72.602-18.797 85-51.797" style="fill:none;stroke-width:9.76;stroke-linecap:round;stroke-linejoin:round;stroke:#fff;stroke-opacity:1;stroke-miterlimit:4" transform="scale(.5)"/></g><g clip-path="url(#b)"><path d="M1749 492.703c-32.898 5.695-55 39.695-57.703 73-2.695 33.297 9.703 65.797 23 96.399 13.305 30.601 28 61.601 30.305 94.898 3.898 56-31.805 112.5-84 133.102-52.204 20.601-116.805 3.796-152.5-39.5-42-50.899-41.204-124.204-68.899-184.102C1407.898 599.203 1338 551.703 1264 547.5m-211.898 255.602c53.796-22.305 108.796-44.805 166.898-48.805 58.102-4 120.898 13.703 157 59.406 29.898 37.797 37.703 88.899 64.102 129.399 32.601 49.898 88.898 77.695 139.5 109.195 50.601 31.5 101.296 75.203 108.601 134.305" style="fill:none;stroke-width:9.76;stroke-linecap:round;stroke-linejoin:round;stroke:#fff;stroke-opacity:1;stroke-miterlimit:4" transform="scale(.5)"/></g><path d="M794.25 710.05v132.552l33.5 92.296 59.602 12.5-23.903-113.597 5.051-123.75Zm0 0" style="stroke:none;fill-rule:nonzero;fill:#f7d3a9;fill-opacity:1"/><path d="M428.55 1089.102H957.3v474.648H428.55Zm0 0" style="stroke:none;fill-rule:nonzero;fill:#c4b9ff;fill-opacity:1"/><path d="M533.5 1089.102h943.352v474.648H533.5Zm142.3-538c-201.902-6.051-207.5 160.296-207.5 160.296h58.45l.102 211.903h272.296l.403-213.25H868.5s0-153.153-192.7-158.95Zm0 0" style="stroke:none;fill-rule:nonzero;fill:#ffc359;fill-opacity:1"/><path d="M1228.148 618c-.546-2.898-11.449-10.602-13.796-13.5-8.153-10.2-13.903-22.2-17.801-34.648-6.153-19.903-7.7-40.852-9.25-61.602-2.25-.898-4.602-1.352-7-1.45.5-1.402 1-2.8 1.55-4.198 1.598-4.051 3.45-8 5.25-12 6.047 2.5 8.047 5.796 11.7-2.5 9.05-20.653 2.398-33.653-6.551-39-19.352-43.5-80.75-31.403-98.352 6.398-2.597 5.7-4.699 11.648-6.199 17.7v.1c-1.148 4.348-2.05 8.802-2.898 13.25-10.051 40.302-28.653 68.052-65.403 92l.051.2c-12.398 9.602-22.55 24.2-11.347 38.398 5.847 7.403 16.097 9.301 25.449 10.653l59.597 8.8c9.903 1.45 20.25 2.899 29.75-.351l30.301-15.352c1.7 6.25 4.102 12.454 8.45 17.25 4.351 4.801 10.953 7.903 17.3 6.704 8.852-1.653 14.102-10.852 14.75-20a66.508 66.508 0 0 0 21.801.148c4.7-.852 13.7-1.5 12.648-7Zm0 0" style="stroke:none;fill-rule:nonzero;fill:#353e70;fill-opacity:1"/><path d="M1103.602 500.45s4.75 28.448-.903 61.85l69.7 24.098s-1.95-45.25 1.25-72.75Zm0 0" style="stroke:none;fill-rule:nonzero;fill:#f7d3a9;fill-opacity:1"/><path d="M1311.602 820.7H939.25c-43.75-146.2 88.2-224.65 88.25-224.7 17.55-11.398 37.3-18.898 57.95-22.102 6.698-1.046 10.8-2.199 11-3.597.35-2.403 1.3-7.75 1.902-12.301 0 0 38.5 13.55 77.25 10.102l.449 8.5c0 .296.449.546 1.3.847a139.17 139.17 0 0 1 57.25 37.051c.047.05.098.148.149.2 6.95 7.55 13.05 15.902 18.05 24.85 32.7 52.348 49.9 124.848 58.802 181.15Zm0 0" style="stroke:none;fill-rule:nonzero;fill:#fe9887;fill-opacity:1"/><path d="M1202.648 1450.75v111.852H1388.5s1.7-54.653-74.852-63.903l-.398-47.949Zm184-.852 29.954 109.153c1.046 3.5 4.75 5.5 8.296 4.449.204-.05.352-.102.5-.2l166.153-65.6s-18.5-51.45-93.102-31.95l-16.55-45.102Zm0 0" style="stroke:none;fill-rule:nonzero;fill:#9f86fe;fill-opacity:1"/><path d="m1374.398 1465.75-79.847-333.7 26.3 338.45H1189.95L1132 1111.95l-33.102-.052c-77.847-.097-138.296-60.648-138.296-138.5l.296-33.699h237.903c23.847 0 47.55 3.051 70.648 9.051 41.5 10.75 79.852 31.2 111.95 59.648 23.5 20.903 50.851 45.301 57.5 79.301 24.402 124.051 62 330.5 62 330.5Zm0 0" style="stroke:none;fill-rule:nonzero;fill:#624fb5;fill-opacity:1"/><path d="M1197.8 500.648c-2.6 29.653-26.198 54.602-51.902 49.602-21.148-4.102-37.796-19.398-41.796-41.898-.704.046-1.403 0-2.102-.051-8.75-1.25-14.852-9.301-13.602-18.051 1.153-8.102 8.204-14.05 16.403-13.75.699.05 1.398.148 2.05.3 5.149.5 10.297.552 15.45.2 39.597-2.75 42.199-32.352 42.199-32.352s1.852 27.602 31.05 33.403c2.15 7.3 2.95 15 2.25 22.597Zm0 0" style="stroke:none;fill-rule:nonzero;fill:#f7d3a9;fill-opacity:1"/><path d="M2589.203 2264.102c-15.906-148.399-104-219.399-209.305-245.805" style="fill:none;stroke-width:6.5;stroke-linecap:round;stroke-linejoin:round;stroke:#ddd6ff;stroke-opacity:1;stroke-miterlimit:4" transform="scale(.5)"/><path d="M2018.898 1641.398c-35.195-124.101 18.704-252 18.704-252m490.101 252c-9.406-85.796-26.601-183.601-58.5-252" style="fill:none;stroke-width:6.5;stroke-linecap:round;stroke-linejoin:round;stroke:#fff;stroke-opacity:1;stroke-miterlimit:4" transform="scale(.5)"/><path d="M725.2 404.148c-13-17-36.65-24.347-57.5-19.699-20.848 4.653-38.598 20.25-47.75 39.551-9.15 19.3-10.25 41.95-5.15 62.75 5.098 20.8 16.15 39.8 29.9 56.148 3.152 3.75 7 7.653 11.902 8.051 5 .403 9.648-3.199 12.148-7.55 2.5-4.348 3.398-9.45 4.602-14.348 6.046-25.051 22.097-52.7 45.25-65.352 21.25-11.597 20.75-41.097 6.597-59.55Zm0 0" style="stroke:none;fill-rule:nonzero;fill:#353e70;fill-opacity:1"/><path d="M631.55 462.602s12.848 49.699 2.552 93.199v.05c-.5 1.5-.852 3.047-1.153 4.598l-.05.153c-4.047 21.046 9.75 41.347 30.8 45.398 21.051 4.05 41.352-9.75 45.403-30.8.796-4.052.898-8.2.398-12.302v-.046c-.3-2.204-.75-4.403-1.398-6.551-1.801-10.551-3.602-33.102 5.097-62.801Zm0 0" style="stroke:none;fill-rule:nonzero;fill:#f7d3a9;fill-opacity:1"/><path d="M615.3 472.352c.848 10.347 9.95 18.046 20.348 17.199.653-.051 1.301-.153 1.954-.301 6.546 26.55 28.699 45.2 53.296 43.148 27.704-2.296 48-30.046 45.301-61.949a64.38 64.38 0 0 0-8.5-27.3c-19.347-8-27.398-18-30.699-24.75-2-4.098-2.3-7-2.352-7.5-.25 2.25-.75 4.453-1.347 6.601-3.45 12.148-15.25 36.7-54.25 35-10.051-2.7-20.403 3.2-23.153 13.25-.546 2.25-.75 4.45-.597 6.602Zm0 0" style="stroke:none;fill-rule:nonzero;fill:#f7d3a9;fill-opacity:1"/><path d="M664.75 1448.55v115.2H856.2s1.75-56.3-77.098-65.852l-.403-49.398H664.75Zm295.852 1.4v112.652H1147.8s1.699-55.051-75.403-64.352l-.398-48.3Zm0 0" style="stroke:none;fill-rule:nonzero;fill:#9f86fe;fill-opacity:1"/><path d="m651.398 1468.898 59.352-369.296-39.05-.051c-80.2-.102-145.2-65.153-145.2-145.403v-32h248c69.2 0 136.352 24.801 188.102 70.75 24.199 21.5 52.75 46.602 59.25 81.653 21.847 118.347 73.949 394.148 73.949 394.148l-155.352-1.55-67.199-346.899-70.05 348.602Zm0 0" style="stroke:none;fill-rule:nonzero;fill:#3f327b;fill-opacity:1"/><path d="M1746.5 2240.602c15.398-118.899-55.898-195.102-164.297-222.204" style="fill:none;stroke-width:6.5;stroke-linecap:round;stroke-linejoin:round;stroke:#fff;stroke-opacity:1;stroke-miterlimit:4" transform="scale(.5)"/><path d="M468.398 711.398h84.653L542.398 796s161.801 10.7 168.352 5.148c4.352-3.699 8.95-7.847 14.352-10 2.046-.796 4.546-1.449 6.597-.25 5.95 3.5-4.898 14.852-7.75 17.153 8.653-1.45 17.352-2.95 26-4.25 3.7-.551 7.45-.903 11.153-1.551 3.597-.648 7.046-.95 10.648-.102 1.852.403 4.352 1.602 5.45 3.153 2 2.898-.052 6.648-2.45 8.597-2.8 2.301-6.8 2.75-10.2 3.852 2.15-.7 6.052.602 8 1.352 3.65 1.449 7.4 4.847 5.098 9.097-.796 1.403-2 2.5-3.398 3.153-2.95 1.449-6.2 1.347-9.398 1.25 4.347.148 9.597 4.597 8.449 9.296-.801 3.403-4.403 4.852-7.602 5.051-1.949.102-3.898-.05-5.847-.449 7.597 1.852 7.699 8.602 1.449 11.75-6.153 3.102-14.2 2.898-20.903 3.05-21.796.348-120.648.802-197.097 1.598-47.75.5-85.403-40.5-80.852-88Zm0 0" style="stroke:none;fill-rule:nonzero;fill:#f7d3a9;fill-opacity:1"/><path d="m1478.898 1638.102 54.204-3m-52.305 32.5 52.406-2.305m-49.601 30.406 38.796-1.906" style="fill:none;stroke-width:2.38;stroke-linecap:round;stroke-linejoin:round;stroke:#353e70;stroke-opacity:1;stroke-miterlimit:4" transform="scale(.5)"/><path d="M1599.203 1329.602v90.5m-493.101 2.695 10.695-99.195" style="fill:none;stroke-width:6.5;stroke-linecap:round;stroke-linejoin:round;stroke:#fff;stroke-opacity:1;stroke-miterlimit:4" transform="scale(.5)"/><path d="M904.102 1983H255" style="fill:none;stroke-width:9.76;stroke-linecap:round;stroke-linejoin:round;stroke:#000;stroke-opacity:1;stroke-miterlimit:4" transform="scale(.5)"/><path d="M283.55 988.852h-75.3c-3.55-4.403-6.852-9-9.75-13.801-.45-.75-.898-1.45-1.3-2.2-28.552-49.101-23.098-114.851-11.802-165.5.25-1.101.5-2.152.75-3.25A505.041 505.041 0 0 1 203.051 747c3.8-10.45 6.449-16.55 6.449-16.55h72.8s15.848 36.25 25.7 84c3.148 15.152 5.398 30.55 6.648 45.948.153 1.551.25 3.102.352 4.602 2.75 43.75-3.55 89.7-31.45 123.852Zm0 0" style="stroke:none;fill-rule:nonzero;fill:#9f86fe;fill-opacity:1"/><path d="M406 1494c14.5 22.797 17.602 51.398 31.797 74.398 20.406 33 60.406 49.102 99.101 52.399 26.305 2.203 54.602 0 79 8.203" style="fill:none;stroke-width:5.02;stroke-linecap:round;stroke-linejoin:round;stroke:#fff;stroke-opacity:1;stroke-miterlimit:4" transform="scale(.5)"/><path d="M242.2 903.852c-1.802 2.148-3.802 4.25-5.7 6.296-4.2 4.454-8.5 9.051-11.3 14.454-2.5 4.847-3.7 10.148-4.95 15.699-.898 4.148-1.898 8.398-3.398 12.398-3.551 9.2-10 17.051-18.352 22.301-.45-.75-.898-1.45-1.3-2.2 7.8-5 14.1-12.402 17.35-21 1.45-3.85 2.4-8.05 3.302-12.1 1.25-5.5 2.5-11.15 5.148-16.348 2.95-5.75 7.398-10.454 11.7-15 1.902-2 3.85-4.102 5.652-6.153 4.046-4.8 10.5-14.25 8.046-23.648-1.949-7.352-8.898-13.352-20.796-17.75-1.352-.5-2.75-1-4.153-1.5-8.148-2.903-16.55-5.903-22.3-12.5-4.547-5.25-6.7-12.102-8.348-18.7-.25-.902-.45-1.851-.7-2.8-1.3-5.45-2.703-11.051-5.402-15.95a20.384 20.384 0 0 0-1.3-2.101c.25-1.102.5-2.148.75-3.25 1.05 1.3 2 2.648 2.8 4.148 2.852 5.204 4.25 10.954 5.602 16.551.25.95.449 1.852.699 2.801 1.602 6.3 3.648 12.8 7.852 17.648 5.296 6.102 13.398 9 21.25 11.801l4.199 1.5c12.699 4.7 20.199 11.301 22.347 19.45 1.903 7.8-1.148 17-8.699 25.953Zm72.75-38.801c-2-2.95-4.25-5.5-7.15-7.403-8.652-5.5-20.152-3-25.652 5.704a18.445 18.445 0 0 0-2.898 10.199c.05 5.75 2.648 10.898 5.398 16.398 2.454 4.903 5 10 5.653 15.551.898 8.398-2.45 17.25-10.301 27.102-1.648 2.097-3.45 4.148-5.2 6.148-4.402 5.148-8.948 10.398-11.902 16.5a38.702 38.702 0 0 0 .153 33.55h-2.801a41.727 41.727 0 0 1 .398-34.652c3.102-6.398 7.75-11.796 12.25-17.046 1.704-2 3.5-4.051 5.153-6.102 7.398-9.3 10.597-17.602 9.75-25.25-.551-5.102-3-10-5.352-14.7-2.75-5.5-5.597-11.198-5.699-17.5-.102-11.652 9.2-21.198 20.852-21.3a20.97 20.97 0 0 1 11.546 3.3c2.051 1.348 3.903 2.95 5.5 4.848.102 1.602.204 3.102.301 4.653Zm0 0" style="stroke:none;fill-rule:nonzero;fill:#fff;fill-opacity:1"/><path d="M209.45 730.398c0 4.352 12.698 7.954 31.5 8.352.8 0 1.652.05 2.5.05h3.448c.852 0 1.704-.05 2.5-.05 3.5-.102 6.852-.3 10-.602.852-.097 1.704-.148 2.5-.25C273.95 736.5 282.2 733.7 282.2 730.45c0-3.5-9.699-6.55-23.449-7.8-.852-.098-1.7-.149-2.602-.2a251.77 251.77 0 0 0-6.648-.347c-.8 0-1.648-.051-2.5-.051h-5.102c-.847 0-1.699.05-2.5.05-17.898.547-29.949 4.098-29.949 8.297Zm0 0" style="stroke:none;fill-rule:nonzero;fill:#3f327b;fill-opacity:1"/><path d="M247.05 722.05c.052 5.598 0 11.2-.152 16.802.852 0 1.704-.051 2.5-.051.102-5.551.153-11.102.153-16.653-.2-63.546-8.301-126.796-24.051-188.347l-2.45.648c15.75 61.25 23.802 124.301 24 187.602Zm0 0" style="stroke:none;fill-rule:nonzero;fill:#353e70;fill-opacity:1"/><path d="M230 556.8c-4.102 1.25-7.648-.3-10.55-3.198-4.598-4.602-7.598-12.602-8.848-18.454-.204-.796-.204-1.648-.102-2.449.398-3 2.602-5.5 5.55-6.148l12.302-2.903a7.31 7.31 0 0 1 7.097 2.25c.153.153.301.352.45.551.601.801 1 1.7 1.203 2.653 2.097 9 5.25 23.949-7.102 27.699Zm0 0" style="stroke:none;fill-rule:nonzero;fill:#fff;fill-opacity:1"/><path d="M235.45 525.852c-1.552 2.148-6.4 4.546-12.4 6-5.1 1.25-9.8 1.5-12.55.796.398-3 2.602-5.449 5.55-6.148l12.302-2.898c2.597-.602 5.347.25 7.097 2.25Zm0 0" style="stroke:none;fill-rule:nonzero;fill:#c7b299;fill-opacity:1"/><path d="M230 556.8c-4.102 1.25-7.648-.3-10.55-3.198 1.152-1.551 3.05-2.602 4.75-3.653 6.698-4.25 11-11.847 11.698-19.648.051-.852 0-2.403 0-3.852.602.801 1 1.7 1.204 2.653 2.097 9 5.25 23.949-7.102 27.699Zm0 0" style="stroke:none;fill-rule:nonzero;fill:#fe9887;fill-opacity:1"/><path d="M256.2 722.45c.948 5.25 2 10.5 3.25 15.698.85-.097 1.698-.148 2.5-.25a264.515 264.515 0 0 1-3.15-15.25 309.056 309.056 0 0 1-1-104l-2.5-.398c-5.55 34.5-5.25 69.75.9 104.2Zm0 0" style="stroke:none;fill-rule:nonzero;fill:#353e70;fill-opacity:1"/><path d="M257.05 619.852c3.848 1.347 7.302 0 10.15-2.653 4.55-4.199 7.698-11.699 9.152-17.199.949-3.648-1.204-7.398-4.852-8.398l-11.602-3.204c-2.449-.699-5.046.051-6.847 1.852-.153.148-.301.352-.45.5-.601.75-1 1.55-1.25 2.45-2.351 8.5-5.902 22.652 5.7 26.652Zm0 0" style="stroke:none;fill-rule:nonzero;fill:#fff;fill-opacity:1"/><path d="M253.05 590.2c1.4 2.1 5.9 4.6 11.598 6.198 4.852 1.403 9.25 1.801 11.903 1.25-.25-2.898-2.25-5.296-5.051-6.097l-11.602-3.2c-2.449-.703-5.097.047-6.847 1.848Zm0 0" style="stroke:none;fill-rule:nonzero;fill:#c7b299;fill-opacity:1"/><path d="M257.05 619.852c3.848 1.347 7.302 0 10.15-2.653-1-1.5-2.802-2.55-4.4-3.648-6.198-4.301-10-11.653-10.35-19.153-.052-.796.1-2.296.152-3.699-.602.75-1 1.551-1.25 2.45-2.352 8.55-5.903 22.703 5.699 26.703Zm0 0" style="stroke:none;fill-rule:nonzero;fill:#fe9887;fill-opacity:1"/><path d="M200.5 625.898c20.602 20.852 33.55 52 38.55 92.551.15 1.2.302 2.45.45 3.653A452.276 452.276 0 0 1 241 738.8c.8 0 1.648.05 2.5.05-.398-5.601-.852-11.203-1.5-16.8l-.45-3.903c-5.05-41.148-18.25-72.75-39.25-94Zm0 0" style="stroke:none;fill-rule:nonzero;fill:#353e70;fill-opacity:1"/><path d="M211 635.398c-2.25 3.153-5.648 4-9.352 3.551-5.847-.75-12.449-4.847-16.597-8.347a6.562 6.562 0 0 1-.852-9.204l7.2-8.898c1.55-1.898 3.953-2.75 6.351-2.352l.602.153c.847.25 1.648.648 2.347 1.25 6.551 5.347 17.051 14.347 10.301 23.847Zm0 0" style="stroke:none;fill-rule:nonzero;fill:#fff;fill-opacity:1"/><path d="M197.75 610.148c.05 2.403-2.102 6.801-5.602 11.204-3 3.75-6.199 6.5-8.546 7.546-1.403-2.398-1.153-5.347.597-7.5l7.25-8.898c1.5-1.852 3.95-2.75 6.301-2.352Zm0 0" style="stroke:none;fill-rule:nonzero;fill:#c7b299;fill-opacity:1"/><path d="M211 635.398c-2.25 3.153-5.648 4-9.352 3.551-.046-1.75.75-3.55 1.403-5.25 2.449-6.75 1.347-14.597-2.5-20.597-.403-.653-1.352-1.704-2.153-2.801.852.25 1.653.648 2.352 1.25 6.5 5.347 17 14.347 10.25 23.847Zm0 0" style="stroke:none;fill-rule:nonzero;fill:#fe9887;fill-opacity:1"/><path d="M237.3 597.648s-1.902-11.449-18.5-18.097c-2.448-1-5.25.199-6.25 2.699-.35.898-.448 1.898-.198 2.852 1.398 6.097 6.847 13.398 24.949 12.546Zm.848 103.852s-3.796-9.102-18.796-11.3a4.003 4.003 0 0 0-4.602 3.448c-.102.801 0 1.653.398 2.403 2.352 4.75 8.25 9.699 23 5.449ZM225 661.5s-4.7-8.648 2.95-21.7a4.085 4.085 0 0 1 5.6-1.448c.7.398 1.302 1.046 1.65 1.796 2.198 4.75 2.35 12.5-10.2 21.352Zm27.852-5.2s-1.352-9.75 10.347-19.35a4.116 4.116 0 0 1 5.75.6c.5.65.852 1.45.903 2.25.347 5.302-2.204 12.598-17 16.5Zm0 0" style="stroke:none;fill-rule:nonzero;fill:#353e70;fill-opacity:1"/><path d="M266.148 916.898C268.602 904.148 274 892.2 282 882a82.55 82.55 0 0 1 3.25-3.898l11.8-13.204c7.5-8.449 8.95-20.699 3.598-30.648l-10-18.602h87.454l-10 18.602c-5.352 9.95-3.903 22.2 3.597 30.648l11.801 13.204a73.535 73.535 0 0 1 4 4.847c2.3 3 4.352 6.153 6.2 9.45h.1a80.886 80.886 0 0 1 10.302 41.5h.046c-.449 20.601-8.75 40.25-23.25 54.902H287.95C273.551 974.148 265.2 954.55 264.7 934v-2.102c0-5 .5-10.046 1.45-15Zm66.403-24.5h4.3a31.602 31.602 0 0 0-4.3 0Zm32.8 62.301c.149-.398.297-.75.399-1.148l-.7.347c.098.301.2.551.302.801Zm-61.402 0c.051-.148.102-.347.2-.5l-.5-.25c.152.301.25.5.3.75Zm0 0" style="stroke:none;fill-rule:nonzero;fill:#ffc359;fill-opacity:1"/><path d="M290.648 815.602c0 4.347 13.801 7.796 33.25 8.648.954.05 1.903.102 2.852.102 1.2.046 2.45.046 3.7.097h3.402c3.847 0 7.597-.097 11.148-.3l2.852-.149c17.648-1.2 30.347-4.648 30.347-8.7 0-3.85-11.55-7.198-27.898-8.5a48.188 48.188 0 0 0-2.801-.198c-4.3-.301-8.852-.454-13.602-.454h-2.347c-.95 0-1.903.051-2.801.051-1.45.051-2.852.102-4.25.153-.95.046-1.898.097-2.8.148-18.348 1.2-31.052 4.95-31.052 9.102Zm0 0" style="stroke:none;fill-rule:nonzero;fill:#fe9887;fill-opacity:1"/><path d="M328.648 806.2c.551 6.1 1.102 12.198 1.801 18.25h2.852c-.653-6.098-1.25-12.2-1.801-18.348a856.36 856.36 0 0 1 .5-153.153l-2.8-.25c-4.802 51.102-4.95 102.45-.552 153.5Zm0 0" style="stroke:none;fill-rule:nonzero;fill:#353e70;fill-opacity:1"/><path d="M328.2 679c4.75.648 8.402-1.7 11.1-5.398 4.25-5.903 6.15-15.25 6.552-21.954a8.09 8.09 0 0 0-7.551-8.546l-14.102-1c-3-.204-5.847 1.199-7.449 3.699-.148.199-.25.449-.398.648-.5 1-.801 2.051-.903 3.153C314.75 660 313.95 677.05 328.2 679Zm0 0" style="stroke:none;fill-rule:nonzero;fill:#fff;fill-opacity:1"/><path d="M316.75 645.8c2.102 2.098 7.898 3.9 14.75 4.45 5.898.5 11.102-.102 14-1.3-.95-3.25-3.852-5.598-7.25-5.848l-14.102-1c-2.949-.25-5.796 1.199-7.398 3.699Zm0 0" style="stroke:none;fill-rule:nonzero;fill:#c7b299;fill-opacity:1"/><path d="M328.2 679c4.75.648 8.402-1.7 11.1-5.398-1.5-1.5-3.85-2.301-5.902-3.204-8.148-3.5-14.25-11.148-16.398-19.648-.25-.898-.398-2.648-.648-4.3-.5 1-.801 2.05-.903 3.152C314.75 660 313.95 677.05 328.2 679Zm0 0" style="stroke:none;fill-rule:nonzero;fill:#fe9887;fill-opacity:1"/><path d="M308.398 752.2a344.474 344.474 0 0 1 13.153 54.35c.949 5.9 1.699 11.802 2.347 17.75.954.052 1.903.098 2.852.098-.602-6-1.398-12-2.352-18a351.88 351.88 0 0 0-13.296-55.046Zm0 0" style="stroke:none;fill-rule:nonzero;fill:#353e70;fill-opacity:1"/><path d="M309.5 753.398c-4.05 2.153-8.05 1.301-11.7-1.148-5.75-3.852-10.6-11.55-13.152-17.398-.347-.801-.546-1.653-.648-2.551-.25-3.25 1.55-6.25 4.5-7.602l12.25-5.597c2.602-1.204 5.602-.852 7.898.847.204.153.403.301.551.45a8.384 8.384 0 0 1 1.852 2.5c4.097 9.101 10.5 24.05-1.551 30.5Zm0 0" style="stroke:none;fill-rule:nonzero;fill:#fff;fill-opacity:1"/><path d="M308.648 720c-1.199 2.55-5.75 6.102-11.699 8.898-5.097 2.403-9.898 3.602-12.898 3.5-.25-3.25 1.55-6.25 4.5-7.597l12.25-5.602c2.55-1.199 5.597-.898 7.847.801Zm0 0" style="stroke:none;fill-rule:nonzero;fill:#c7b299;fill-opacity:1"/><path d="M309.5 753.398c-4.05 2.153-8.05 1.301-11.7-1.148.848-1.852 2.65-3.352 4.2-4.8 6.102-5.848 9-14.65 8.102-23-.102-.9-.5-2.5-.852-4.052a8.45 8.45 0 0 1 1.852 2.5c4.046 9.102 10.449 24.051-1.602 30.5Zm0 0" style="stroke:none;fill-rule:nonzero;fill:#fe9887;fill-opacity:1"/><path d="m344.898 824.2 2.852-.15c.55-5.948 1.398-11.698 2.398-17.25 4.102-22.198 11.704-41.152 22.852-56.698l-2.3-1.653c-11.4 15.95-19.25 35.403-23.4 58.102-1 5.75-1.8 11.597-2.402 17.648Zm0 0" style="stroke:none;fill-rule:nonzero;fill:#353e70;fill-opacity:1"/><path d="M363.102 762.5c3.046 3.102 6.949 3.45 10.949 2.25 6.3-1.852 12.898-7.55 16.847-12.148.551-.653 1-1.352 1.301-2.153 1.102-2.847.352-6.148-1.949-8.199l-9.55-8.55c-2-1.802-4.848-2.348-7.4-1.45-.198.102-.448.148-.652.25-.898.398-1.699 1.05-2.347 1.75-6.301 7.148-16.352 18.95-7.2 28.25Zm0 0" style="stroke:none;fill-rule:nonzero;fill:#fff;fill-opacity:1"/><path d="M373.25 732.3c.352 2.65 3.5 7.15 8.148 11.4 3.954 3.6 8 6.1 10.801 6.8 1.102-2.852.352-6.148-1.949-8.2l-9.55-8.55c-2.052-1.8-4.9-2.398-7.45-1.45Zm0 0" style="stroke:none;fill-rule:nonzero;fill:#c7b299;fill-opacity:1"/><path d="M363.102 762.5c3.046 3.102 6.949 3.45 10.949 2.25-.25-1.95-1.5-3.8-2.45-5.55-3.902-7.052-4.05-15.848-.902-23.2.352-.8 1.2-2.148 1.903-3.45-.903.4-1.704 1.052-2.352 1.75-6.25 7.098-16.3 18.9-7.148 28.2Zm0 0" style="stroke:none;fill-rule:nonzero;fill:#fe9887;fill-opacity:1"/><path d="M326.102 708.8s1.648-10.902-11.352-21.75c-1.95-1.6-4.8-1.35-6.398.598-.602.704-.954 1.602-1.051 2.5-.45 5.903 2.25 14.102 18.8 18.653Zm-10.403 65.848s-1.25-7-11.449-11a2.924 2.924 0 0 0-3.8 1.704c-.2.546-.25 1.148-.098 1.75.898 3.699 4.25 8.148 15.347 7.546Zm36.25 15.852s1.301-7-6.847-14.352c-1.204-1.097-3.102-.949-4.153.25-.398.454-.648 1-.699 1.602-.5 3.8 1.102 9.2 11.7 12.5Zm0 0" style="stroke:none;fill-rule:nonzero;fill:#353e70;fill-opacity:1"/><path d="m266.148 916.898 70.903 51.704 65.8-51.051a81.21 81.21 0 0 0-9.05-25.153h-.102a78.69 78.69 0 0 0-6.199-9.449l-50.45 39.153L282 882c-8 10.2-13.45 22.148-15.852 34.898Zm0 0" style="stroke:none;fill-rule:nonzero;fill:#f2f2f2;fill-opacity:1"/><path d="M2741.898 1031.602c8.602-26.805 8.602-55.602 0-82.5l346.805.296S3102.297 971 3100 990.297c-2.297 19.305-2.797 27.805-11.297 41.203h-346.805Zm0 0" style="fill-rule:nonzero;fill:#f2f2f2;fill-opacity:1;stroke-width:2.17;stroke-linecap:round;stroke-linejoin:round;stroke:#353e70;stroke-opacity:1;stroke-miterlimit:4" transform="scale(.5)"/><path d="M1545.05 518.5h-181.8c-1.5-.05-2.648-1.352-2.602-2.8a2.718 2.718 0 0 1 2.602-2.598h180.2a39 39 0 0 0 0-35.653h-180.2c-1.5-.05-2.648-1.347-2.602-2.8a2.721 2.721 0 0 1 2.602-2.598h181.8c.95 0 1.848.5 2.348 1.347a44.302 44.302 0 0 1 0 43.75c-.449.852-1.347 1.352-2.347 1.352Zm0 0" style="stroke:none;fill-rule:nonzero;fill:#ffc359;fill-opacity:1"/><path d="M2694.703 941c8.399-26.797 8.399-55.602 0-82.5l335.594.297s13.101 21.601 10.906 40.906C3039 919 3038.5 927.5 3030.297 940.898h-335.594Zm0 0" style="fill-rule:nonzero;fill:#f2f2f2;fill-opacity:1;stroke-width:2.17;stroke-linecap:round;stroke-linejoin:round;stroke:#353e70;stroke-opacity:1;stroke-miterlimit:4" transform="scale(.5)"/><path d="M1513.45 473.2h-187.848c-1.5-.052-2.653-1.348-2.602-2.802a2.718 2.718 0 0 1 2.602-2.597h186.25c6-11.153 6-24.5 0-35.653h-186.25a2.69 2.69 0 0 1-2.704-2.699c0-1.5 1.204-2.699 2.704-2.699h187.847c.95 0 1.852.5 2.352 1.352a43.198 43.198 0 0 1 0 43.796c-.551.801-1.403 1.301-2.352 1.301Zm0 0" style="stroke:none;fill-rule:nonzero;fill:#c4b9ff;fill-opacity:1"/><path d="M2775.398 850.5a135.106 135.106 0 0 0 0-82.5l346.805.297s13.594 21.601 11.297 40.906c-2.297 19.297-2.797 27.797-11.297 41.195h-346.805Zm0 0" style="fill-rule:nonzero;fill:#f2f2f2;fill-opacity:1;stroke-width:2.17;stroke-linecap:round;stroke-linejoin:round;stroke:#353e70;stroke-opacity:1;stroke-miterlimit:4" transform="scale(.5)"/><path d="M1561.25 427.95H1379.5a2.69 2.69 0 0 1-2.8-2.598 2.693 2.693 0 0 1 2.6-2.801h180.45a39 39 0 0 0 0-35.653H1379.5a2.69 2.69 0 0 1-2.8-2.597 2.693 2.693 0 0 1 2.6-2.801h182.052c.949 0 1.847.5 2.347 1.352 7.7 13.546 7.7 30.199 0 43.75-.55.847-1.449 1.347-2.449 1.347Zm0 0" style="stroke:none;fill-rule:nonzero;fill:#ffc359;fill-opacity:1"/><path d="M2689.5 760.203c8.703-26.805 8.703-55.601 0-82.5l346.797.297s13.601 21.602 11.305 40.898c-2.305 19.305-2.805 27.805-11.305 41.204H2689.5Zm0 0" style="fill-rule:nonzero;fill:#f2f2f2;fill-opacity:1;stroke-width:2.17;stroke-linecap:round;stroke-linejoin:round;stroke:#353e70;stroke-opacity:1;stroke-miterlimit:4" transform="scale(.5)"/><path d="M1519.7 382.8h-181.802a2.687 2.687 0 0 1-2.796-2.6 2.69 2.69 0 0 1 2.597-2.802h180.45a38.991 38.991 0 0 0 0-35.648h-180.2a2.693 2.693 0 0 1-2.8-2.602c-.047-1.5 1.101-2.75 2.601-2.796h182.05c.95 0 1.848.5 2.348 1.347a44.302 44.302 0 0 1 0 43.75 2.885 2.885 0 0 1-2.449 1.352Zm0 0" style="stroke:none;fill-rule:nonzero;fill:#c4b9ff;fill-opacity:1"/><path d="M1178.926 446.629c-2.738-9.5-14.66-14.402-26.63-10.953-11.964 3.449-19.444 13.945-16.706 23.445 2.738 9.5 14.656 14.402 26.625 10.953 11.965-3.449 19.45-13.945 16.71-23.445Zm0 0" style="stroke:none;fill-rule:nonzero;fill:#353e70;fill-opacity:1"/><path d="M2964.5 2967.102s7.898-24.204 32.398-35.602m-421.101 87.602s11.601-22.399 51.601-21.704m-532 21.704s8.399-23.102 49.399-22.704m-636.594 15.899s13.5-14.899 49.899-16.5" style="fill:none;stroke-width:6.5;stroke-linecap:round;stroke-linejoin:round;stroke:#fff;stroke-opacity:1;stroke-miterlimit:4" transform="scale(.5)"/><path d="M2555.898 1042.5h723.305" style="fill:none;stroke-width:9.76;stroke-linecap:round;stroke-linejoin:round;stroke:#000;stroke-opacity:1;stroke-miterlimit:4" transform="scale(.5)"/><path d="M713.3 458.55c-.05 1.052.098 2.052.4 3.052.75 1.597 2.6 1.949 4.152 2.148 2.046.25 4.097.45 6.148.5 1.7.05 3.602.5 5.25.102 2.102-.5 1.95-2.403.602-3.75-1.852-1.801-4.852-2.403-7.301-2.954-1.95-.398-9.153-2.296-9.25.903Zm-13.698-.5c.097 1.098 0 2.25-.352 3.302-.75 1.75-2.7 2.199-4.398 2.5-2.204.398-4.403.597-6.602.75-1.852.148-3.852.699-5.648.296-2.25-.449-2.204-2.5-.801-4 1.949-2.046 5.148-2.75 7.75-3.5 2.097-.5 9.75-2.796 10.05.653Zm0 0" style="stroke:none;fill-rule:nonzero;fill:#353e70;fill-opacity:1"/><path d="M1415 951.398c.898 5.102 1.5 10.204 1.797 15.399.203 2.5.305 4.906.406 7.406.094 2.5-1.203 3.695-3.703 3.195" style="fill:none;stroke-width:2.47;stroke-linecap:round;stroke-linejoin:round;stroke:#353e70;stroke-opacity:1;stroke-miterlimit:4" transform="scale(.5)"/><path d="M700.55 496.2a2.763 2.763 0 0 1-2.948 2.6 2.76 2.76 0 0 1-2.602-2.948c.102-1.551 1.398-2.704 2.95-2.602 1.5.102 2.698 1.45 2.6 2.95Zm0 0" style="stroke:none;fill-rule:nonzero;fill:#fe9887;fill-opacity:1"/><path d="M1391.398 986.602c1.102 5 5.399 7.898 10.602 8.296" style="fill:none;stroke-width:2.47;stroke-linecap:round;stroke-linejoin:round;stroke:#353e70;stroke-opacity:1;stroke-miterlimit:4" transform="scale(.5)"/><path d="M687.648 482.5c-.148 2.5-2.347 4.45-4.847 4.3-2.5-.152-4.45-2.35-4.301-4.85.148-2.5 2.352-4.45 4.852-4.302 2.546.153 4.449 2.352 4.296 4.852Zm0 0" style="stroke:none;fill-rule:nonzero;fill:#fe9887;fill-opacity:1"/><path d="M721.648 471.352c-.199 1.296-1.347 2.148-2.648 2-1.3-.204-2.148-1.352-2-2.653.2-1.3 1.352-2.148 2.648-2 1.25.153 2.153 1.352 2 2.653Zm-25.347.097c-.2 1.301-1.352 2.153-2.653 2-1.296-.148-2.148-1.347-2-2.648.204-1.301 1.352-2.153 2.653-2 1.3.199 2.199 1.347 2 2.648Zm0 0" style="stroke:none;fill-rule:nonzero;fill:#353e70;fill-opacity:1"/><path d="M695.45 471.2a.906.906 0 1 1-.8-1c.55.05.85.5.8 1Zm25.3-.15c-.05.5-.55.848-1.05.802-.5-.051-.848-.551-.802-1.051.051-.5.551-.852 1.051-.801.5.102.852.55.801 1.05Zm0 0" style="stroke:none;fill-rule:nonzero;fill:#fff;fill-opacity:1"/><path d="M1174.5 489.2c-.05.902.102 1.8.352 2.652.648 1.398 2.25 1.699 3.648 1.898 1.8.25 3.55.398 5.352.45 1.5.05 3.148.448 4.597.1 1.801-.448 1.7-2.1.551-3.25-1.648-1.6-4.25-2.1-6.398-2.6-1.704-.45-7.954-2.052-8.102.75Zm-12-.45c.102 1 0 1.95-.3 2.898-.65 1.5-2.348 1.954-3.848 2.204a76.345 76.345 0 0 1-5.801.699c-1.602.097-3.403.597-5 .3-2-.402-1.95-2.203-.7-3.5 1.7-1.8 4.5-2.453 6.797-3.05 1.903-.551 8.602-2.551 8.852.449Zm0 0" style="stroke:none;fill-rule:nonzero;fill:#353e70;fill-opacity:1"/><path d="M2338.898 1008.5c.805 4.5 1.305 9 1.602 13.5.102 2.203.297 4.297.297 6.5 0 2.203-1 3.203-3.195 2.797" style="fill:none;stroke-width:2.17;stroke-linecap:round;stroke-linejoin:round;stroke:#353e70;stroke-opacity:1;stroke-miterlimit:4" transform="scale(.5)"/><path d="M1163.352 522.2a2.417 2.417 0 0 1-2.602 2.25 2.413 2.413 0 0 1-2.25-2.598 2.417 2.417 0 0 1 2.602-2.25c1.296.097 2.347 1.25 2.25 2.597Zm0 0" style="stroke:none;fill-rule:nonzero;fill:#fe9887;fill-opacity:1"/><path d="M2318.203 1039.297c1 4.406 4.695 6.906 9.297 7.305" style="fill:none;stroke-width:2.17;stroke-linecap:round;stroke-linejoin:round;stroke:#353e70;stroke-opacity:1;stroke-miterlimit:4" transform="scale(.5)"/><path d="M1152.05 509.95a4 4 0 1 1-8-.001 4 4 0 0 1 8 0Zm0 0" style="stroke:none;fill-rule:nonzero;fill:#fe9887;fill-opacity:1"/><path d="M1181.852 500.398c-.153 1.102-1.204 1.903-2.301 1.75-1.102-.148-1.903-1.199-1.75-2.296.148-1.102 1.199-1.903 2.3-1.75 1.098.097 1.899 1.148 1.75 2.296Zm-22.204.102c-.148 1.102-1.199 1.898-2.296 1.75-1.102-.148-1.903-1.2-1.75-2.3.148-1.098 1.199-1.9 2.296-1.75 1.102.152 1.903 1.198 1.75 2.3Zm0 0" style="stroke:none;fill-rule:nonzero;fill:#353e70;fill-opacity:1"/><path d="M1158.898 500.25a.728.728 0 0 1-.898.648.728.728 0 0 1-.648-.898c.046-.45.449-.75.898-.648.398.046.7.449.648.898Zm22.153-.102c-.051.454-.45.75-.903.704-.449-.051-.75-.454-.699-.903.051-.449.45-.75.903-.699.449.05.75.45.699.898Zm0 0" style="stroke:none;fill-rule:nonzero;fill:#fff;fill-opacity:1"/><path d="M632.352 460.25s-10.102.648-10.051 11.7c-.051.05 9.55 1.402 10.05-11.7Zm0 0" style="stroke:none;fill-rule:nonzero;fill:#fe9887;fill-opacity:1"/><path d="M636.75 460.5c-1.05.352-2.05.648-3 .95-.95.3-1.898.652-2.75 1-1.648.6-3.148 1.5-4.5 2.652a10.86 10.86 0 0 0-1.602 1.796c-.5.704-.898 1.5-1.199 2.25-.097.204-.148.403-.25.653-.097.25-.148.449-.199.648-.05.2-.148.45-.2.7l-.198.703c-.102.25-.102.5-.153.75-.05.25-.097.5-.199.75-.102.5-.2 1.046-.352 1.546-.25-.5-.5-1-.699-1.5a8.54 8.54 0 0 1-.449-1.597 18.55 18.55 0 0 1-.25-1.653c0-.296-.05-.546-.05-.847 0-.301.05-.602.05-.852.102-1.199.45-2.347.95-3.449.55-1.102 1.3-2.102 2.25-2.898.902-.801 1.948-1.454 3.05-1.903 1.05-.398 2.2-.699 3.352-.8 1.097-.098 2.199-.047 3.296.101.551.102 1.102.2 1.602.352.5.199 1 .398 1.5.648Zm0 0" style="stroke:none;fill-rule:nonzero;fill:#353e70;fill-opacity:1"/><path d="M1103.602 482.102s-10.801.699-10.801 12.546c.05 0 10.3 1.454 10.8-12.546Zm0 0" style="stroke:none;fill-rule:nonzero;fill:#fe9887;fill-opacity:1"/><path d="M1108.352 482.352c-1.153.347-2.204.648-3.204 1-1 .347-2 .648-2.949 1.046a16.86 16.86 0 0 0-4.847 2.801c-.653.602-1.25 1.25-1.704 1.95-.5.75-.949 1.601-1.296 2.453-.102.25-.204.449-.25.699-.051.25-.153.5-.204.699-.097.25-.148.5-.199.75l-.199.75c-.102.25-.102.5-.2.8-.1.302-.152.552-.198.802-.102.546-.204 1.097-.403 1.648-.3-.5-.55-1.05-.75-1.602-.199-.546-.347-1.097-.5-1.699-.148-.597-.199-1.199-.25-1.75 0-.3-.05-.597-.05-.898 0-.301.05-.602.05-.95.102-1.3.45-2.55 1.051-3.652.602-1.199 1.398-2.25 2.398-3.097a10.616 10.616 0 0 1 3.301-2 12.663 12.663 0 0 1 3.551-.852c1.2-.102 2.352-.102 3.55.102.598.097 1.15.199 1.7.398.55.102 1.05.3 1.602.602Zm0 0" style="stroke:none;fill-rule:nonzero;fill:#353e70;fill-opacity:1"/><path d="M1235.648 1346.148h340v64.25h-340Zm0 0" style="stroke:none;fill-rule:nonzero;fill:#ddd6ff;fill-opacity:1"/><path d="M1674.05 1474.648h-536.8l96.102-64.25h340Zm0 0" style="stroke:none;fill-rule:nonzero;fill:#8982bc;fill-opacity:1"/><path d="M938.8 820.7h933.7v534.948H938.8Zm0 0" style="stroke:none;fill-rule:nonzero;fill:#624fb5;fill-opacity:1"/><path d="M953.602 820.7H1872.5v534.948H953.602Zm0 0" style="stroke:none;fill-rule:nonzero;fill:#ddd6ff;fill-opacity:1"/><path d="M1096.5 921.45h621.75V1181H1096.5Zm0 0" style="stroke:none;fill-rule:nonzero;fill:#624fb5;fill-opacity:1"/><path d="M1102.148 921.45h616.102V1181h-616.102Zm0 0" style="stroke:none;fill-rule:nonzero;fill:#9f86fe;fill-opacity:1"/><path d="M2274.5 2033h330.203m-330.203 70.797h330.203m-330.203 68h330.203M3017.898 2033h330.204m-330.204 70.797h330.204m-330.204 68h330.204" style="fill:none;stroke-width:12;stroke-linecap:round;stroke-linejoin:round;stroke:#ddd6ff;stroke-opacity:1;stroke-miterlimit:4" transform="scale(.5)"/><path d="M1614.8 1273.352h119.348v39.296h-119.347Zm0 0" style="stroke:none;fill-rule:nonzero;fill:#624fb5;fill-opacity:1"/><path d="M1654.95 1293.3c0 5.098-4.15 9.25-9.2 9.25-5.102 0-9.25-4.152-9.25-9.198 0-5.102 4.148-9.25 9.2-9.25 5.1 0 9.25 4.097 9.25 9.199ZM1683.25 1293.3a9.25 9.25 0 0 1-9.25 9.25 9.25 9.25 0 0 1-9.25-9.25 9.25 9.25 0 0 1 9.25-9.25 9.25 9.25 0 0 1 9.25 9.25ZM1711.852 1293.3c0 5.098-4.153 9.25-9.204 9.25-5.097 0-9.25-4.152-9.25-9.198 0-5.102 4.153-9.25 9.204-9.25 5.097 0 9.25 4.097 9.25 9.199Zm0 0" style="stroke:none;fill-rule:nonzero;fill:#ffc359;fill-opacity:1"/><path d="M1872.5 1474.648c0 129.75-105.2 234.903-234.898 234.903h-469.204c-129.75 0-234.898-105.2-234.898-234.903Zm0 0" style="stroke:none;fill-rule:nonzero;fill:#fe9887;fill-opacity:1"/><g clip-path="url(#c)"><g clip-path="url(#d)"><path d="M3757.898 2841.602c-88.398-31.204-194.101-4.899-257.5 64.101-59.398 64.695-78.898 155.594-120.695 232.899-71.305 131.695-214 221.898-363.5 229.601-64.805 3.399-129.305-7.601-194.101-10.601-64.805-3-132.704 3.101-188 37-55.305 33.898-93.704 101.796-76.602 164.296m870.797 95.704C3396.602 3516 3443.5 3362.203 3547 3264.797c103.5-97.399 260-134.594 396.398-94.399m-1682.5-331c-26.601 107 21.602 228.305 114.399 287.805 92.805 59.5 223.203 52.797 309.305-16 39.898-31.906 70.898-75.406 116.101-99.203 75.899-39.898 169.399-13.797 253.399-31.203 98.101-20.297 179.101-106.094 193.695-205.297M1980.5 2850.102c-31.898 61.195-2.102 139 47.398 187s114.899 75.195 174.602 109.695 118.297 82 136.102 148.601c17.5 65.204-10.102 137.805-61 182.204-50.899 44.398-121.5 62.195-188.805 57.101" style="fill:none;stroke-width:9.76;stroke-linecap:round;stroke-linejoin:round;stroke:#fff;stroke-opacity:1;stroke-miterlimit:4" transform="scale(.5)"/></g></g></svg>