<svg xmlns="http://www.w3.org/2000/svg" width="px" height="px" viewBox="0 0 340 275"><path d="M200.137 246.441c0-3.148-13.93-5.695-31.114-5.695-17.18 0-31.109 2.547-31.109 5.695 0 3.145 13.93 5.696 31.11 5.696 17.183 0 31.113-2.551 31.113-5.696Zm0 0" style="stroke:none;fill-rule:nonzero;fill:#ccc;fill-opacity:1"/><path d="M116.238 246.441c0-3.148-13.925-5.695-31.11-5.695-17.179 0-31.108 2.547-31.108 5.695 0 3.145 13.93 5.696 31.109 5.696 17.183 0 31.11-2.551 31.11-5.696ZM295.48 246.441c0-3.148-13.93-5.695-31.109-5.695-17.183 0-31.11 2.547-31.11 5.695 0 3.145 13.927 5.696 31.11 5.696 17.18 0 31.11-2.551 31.11-5.696Zm0 0" style="stroke:none;fill-rule:nonzero;fill:#9ab8e5;fill-opacity:1"/><path d="M307.102 106.781c-26.368-67.785-91.391-13.5-141.957-42.457-36.622-20.965-86.875-53.937-126.286 7.77-21.593 33.82-6.836 77.36 33.254 79.144 29.907 1.336 62.973 7.106 88.543 22.961 61.492 38.13 172.809.36 146.446-67.418Zm0 0" style="stroke:none;fill-rule:nonzero;fill:#d9e6ff;fill-opacity:1"/><path d="M244.188 15.5c-13.504-4.11-27.583 2.836-31.442 15.52-3.86 12.68 3.957 26.289 17.465 30.402 13.504 4.11 27.578-2.836 31.437-15.516 3.864-12.683-3.957-26.293-17.46-30.406Zm0 0" style="stroke:none;fill-rule:nonzero;fill:#d9e6ff;fill-opacity:1"/><path d="M280.566 216c18.07-69.035 39.254-46.262 30.286-33.8-8.973 12.46-30.286 33.8-30.286 33.8ZM55.273 188.766C-1.21 145.156 28.031 134.555 36 147.68c7.969 13.125 19.273 41.086 19.273 41.086Zm156.262 27.054c-27.71-38.945-5.172-42.691-2.41-33.09 2.762 9.598 2.41 33.09 2.41 33.09Zm-99.738-2c-4-47.636 17.312-39.367 14.793-29.699-2.52 9.664-14.793 29.7-14.793 29.7Zm0 0" style="stroke:none;fill-rule:nonzero;fill:#507096;fill-opacity:1"/><path d="M190.871 231.426h127.027s-6.886-30.145-33.113-22.2c0 0-.539-33.44-34.531-37.831-33.988-4.391-42 34.386-42 34.386s-19.973-3.281-17.383 25.645Zm0 0" style="stroke:none;fill-rule:nonzero;fill:#ccc;fill-opacity:1"/><path d="m201.824 214.738-.445.23 8.543 16.458h.562Zm45.867 16.688 2.18-52.563-.5-.02-2.187 52.583Zm40.004 0 9.075-13.375-.41-.281-9.27 13.656Zm0 0" style="stroke:none;fill-rule:nonzero;fill:#507096;fill-opacity:1"/><path d="M232.625 234.164h-56.89s17.855-16.16 26.706-6.883c0 0-.046-7.472 8.063-8.281 6.715-.664 10.566 7.594 10.566 7.594s6.89-7.266 11.555 7.57Zm0 0" style="stroke:none;fill-rule:nonzero;fill:#507096;fill-opacity:1"/><path d="M141.387 231.105H16.94s-3.554-42.23 24-61.46c27.555-19.23 59.325 3.058 56.63 30.73 0 0 18.038-8.781 25.445 10.328-.016 0 15.984-3.793 18.37 20.402Zm0 0" style="stroke:none;fill-rule:nonzero;fill:#ccc;fill-opacity:1"/><path d="m104.219 211.715-.489-.09-3.433 19.48h.508Zm19.285 19.39 6.105-12.03-.445-.223-6.219 12.253Zm-75.367-48.343-.5.043 4.691 48.3h.508Zm0 0" style="stroke:none;fill-rule:nonzero;fill:#507096;fill-opacity:1"/><path d="M58.941 234.164H7.164s5-19.914 14.16-22.539 15.617 9.453 15.617 9.453 11.918-3.758 13.293 5.75c0 0 8.707-1.277 8.707 7.336Zm235.114.688h39.332S328.5 220.555 320.273 222c-8.222 1.445-10.886 5.281-10.886 5.281s-4.668-13.027-15.332 7.57ZM47.695 26.852a18.159 18.159 0 0 0-19.43 29.566 18.16 18.16 0 0 0 22.38 3.105l6.183 3-1.328-7.148a18.15 18.15 0 0 0-7.781-28.5Zm0 0" style="stroke:none;fill-rule:nonzero;fill:#507096;fill-opacity:1"/><path d="M41.2 34.16c-5.2 0-6.2 4.285-6.2 4.406l3.426 1.653c.258-1 1.074-2.399 2.75-2.399a1.855 1.855 0 0 1 1.89 1.91c0 1.657-1.332 1.723-2.75 2.63-1.05.68-1.097 1.5-1.097 2.538v2.543h3.847v-1.304c0-.766 0-1.422.813-1.774 2.234-.953 3.937-2.347 3.937-4.633 0-3.285-3.12-5.57-6.617-5.57Zm-.071 14.586a2.668 2.668 0 0 0-2.66 2.672 2.674 2.674 0 0 0 2.668 2.668 2.668 2.668 0 0 0 2.672-2.66 2.647 2.647 0 0 0-.778-1.903 2.647 2.647 0 0 0-1.902-.777Zm0 0" style="stroke:none;fill-rule:nonzero;fill:#fff;fill-opacity:1"/><path d="M292.305 35.195a18.16 18.16 0 0 1 21.46 7.067 18.161 18.161 0 0 1-24.41 25.61l-6.183 3 1.351-7.145a18.164 18.164 0 0 1-3.445-16.254 18.15 18.15 0 0 1 11.227-12.246Zm0 0" style="stroke:none;fill-rule:nonzero;fill:#507096;fill-opacity:1"/><path d="M298.379 42.5c-5.195 0-6.195 4.285-6.195 4.398l3.425 1.657c.254-1 1.07-2.399 2.75-2.399a1.86 1.86 0 0 1 1.352.551c.355.363.547.852.535 1.36 0 1.652-1.332 1.722-2.75 2.632-1.05.676-1.098 1.5-1.098 2.54v2.542h3.848V54.5c0-.77 0-1.422.813-1.77 2.242-.957 3.941-2.355 3.941-4.64 0-3.305-3.125-5.59-6.621-5.59Zm-.07 14.59a2.673 2.673 0 0 0-2.66 2.672 2.672 2.672 0 0 0 2.667 2.668 2.666 2.666 0 0 0 2.672-2.66 2.654 2.654 0 0 0-2.68-2.68Zm0 0" style="stroke:none;fill-rule:nonzero;fill:#fff;fill-opacity:1"/><path d="M106.3 61.578c0-1.039 8.954-39.348 55.384-39.348 31.23 0 59.132 20.407 59.132 49.766 0 20.399-15.203 32.895-35.187 41.43-7.078 3.125-7.29 8.953-7.29 15.824v11.66H144v-22.695c0-9.16.422-16.656 9.785-22.695 12.703-8.122 24.57-8.747 24.57-23.5 0-10-7.5-17.075-16.867-17.075-15 0-22.273 12.5-24.566 21.446ZM185 176.5c-.059 13.14-10.734 23.754-23.875 23.734-13.14-.02-23.785-10.664-23.805-23.804-.02-13.14 10.598-23.817 23.735-23.875a23.755 23.755 0 0 1 16.98 6.965A23.755 23.755 0 0 1 185 176.5Zm0 0" style="stroke:none;fill-rule:nonzero;fill:#30587f;fill-opacity:1"/><path d="M161.059 152.57h12v47.68h-12Zm0 0" style="stroke:none;fill-rule:nonzero;fill:#30587f;fill-opacity:1"/><path d="M118.3 61.578c0-1.039 8.954-39.348 55.384-39.348 31.23 0 59.132 20.407 59.132 49.766 0 20.399-15.203 32.895-35.187 41.43-7.078 3.125-7.29 8.953-7.29 15.824v11.66H156v-22.695c0-9.16.422-16.656 9.785-22.695 12.703-8.122 24.57-8.747 24.57-23.5 0-10-7.5-17.075-16.867-17.075-15 0-22.277 12.5-24.566 21.446ZM197 176.5c-.059 13.14-10.734 23.754-23.875 23.734-13.14-.02-23.785-10.664-23.805-23.804-.02-13.14 10.598-23.817 23.735-23.875a23.755 23.755 0 0 1 16.98 6.965A23.755 23.755 0 0 1 197 176.5Zm0 0" style="stroke:none;fill-rule:nonzero;fill:#507096;fill-opacity:1"/><path d="M106.3 61.586h12l30.606 14.777h-12Zm0 0" style="stroke:none;fill-rule:nonzero;fill:#30587f;fill-opacity:1"/><path d="M68.156 89.836s-8.101 4-10.25 15.11l-.277-.376a5.153 5.153 0 0 0-3.559-2.066 5.177 5.177 0 0 0-3.941 1.195l-.582.5a5.157 5.157 0 0 0-.938 6.801c1.344 2 2.965 4.41 4.188 6.172 2.5 3.629 9.922 4.887 14.668-2.742 4.746-7.63.691-24.594.691-24.594Zm0 0" style="stroke:none;fill-rule:nonzero;fill:#3a9b9b;fill-opacity:1"/><path d="M53.656 103.555a4.63 4.63 0 1 1-.637 9.239 4.63 4.63 0 0 1 .637-9.24Zm0 0" style="stroke:none;fill-rule:nonzero;fill:#6bddbc;fill-opacity:1"/><path d="m50.5 109.79-9.36-15.688a2.136 2.136 0 0 1 .66-2.793 2.134 2.134 0 0 1 2.84.394l11.204 14.422a3.258 3.258 0 0 1-5.14 4 3.654 3.654 0 0 1-.204-.336Zm0 0" style="stroke:none;fill-rule:nonzero;fill:#a56f62;fill-opacity:1"/><path d="M45.566 91.156c.922 1.5-2.3 4.649-4.406 4.414-1.719-.195-4.05-.558-6.535-.332a.994.994 0 0 1-.95-.43.996.996 0 0 1-.05-1.038c.672-1.305 1.828-2.946 3.566-3.36 3-.719 4.918.29 4.918.29s-1.336-2.747.868-3.778l.535 1.625s1.843.867 2.054 2.61Zm0 0" style="stroke:none;fill-rule:nonzero;fill:#a56f62;fill-opacity:1"/><path d="M41.41 91.23a4.296 4.296 0 0 0-2.281 2.793s-.75-2.453 2.281-2.793Zm0 0" style="stroke:none;fill-rule:nonzero;fill:#8c5c53;fill-opacity:1"/><path d="M34.23 92.766c.145-.215.305-.43.5-.641 3.114-.715 4.891.305 4.97.352l-.255.43s-1.945-1.083-5.215-.141ZM36 90.94c2.773-.46 4.434.543 4.5.594l-.266.426s-1.937-1.188-5.093-.332c.261-.258.55-.488.859-.688Zm-2.363 2.848c2.328-.953 5.453-.5 5.593-.5l-.07.5c-.035 0-3.41-.465-5.613.59-.031-.2 0-.406.09-.59Zm0 0" style="stroke:none;fill-rule:nonzero;fill:#8c5c53;fill-opacity:1"/><path d="M94.738 89.836s8.098 4 10.246 15.11l.278-.376a5.153 5.153 0 0 1 3.558-2.066 5.181 5.181 0 0 1 3.942 1.195l.582.5c2 1.7 2.41 4.625.953 6.805-1.348 2-2.969 4.41-4.188 6.172-2.5 3.629-9.925 4.89-14.664-2.742-4.742-7.63-.707-24.598-.707-24.598Zm0 0" style="stroke:none;fill-rule:nonzero;fill:#3a9b9b;fill-opacity:1"/><path d="M106.395 111.555a4.63 4.63 0 1 0 6.324-6.766 4.626 4.626 0 0 0-6.543.223 4.63 4.63 0 0 0 .219 6.543Zm0 0" style="stroke:none;fill-rule:nonzero;fill:#6bddbc;fill-opacity:1"/><path d="m112.406 109.79 9.344-15.688a2.136 2.136 0 0 0-.66-2.793 2.134 2.134 0 0 0-2.84.394l-11.203 14.422a3.257 3.257 0 0 0 .566 4.57 3.257 3.257 0 0 0 4.57-.57c.083-.11.157-.219.223-.336Zm0 0" style="stroke:none;fill-rule:nonzero;fill:#a56f62;fill-opacity:1"/><path d="M117.328 91.156c-.93 1.5 2.297 4.649 4.406 4.414a30.716 30.716 0 0 1 6.532-.332.994.994 0 0 0 .949-.43c.207-.308.23-.71.05-1.038-.671-1.305-1.835-2.946-3.57-3.36-3-.719-4.914.29-4.914.29s1.328-2.747-.87-3.778l-.536 1.625s-1.84.867-2.047 2.61Zm0 0" style="stroke:none;fill-rule:nonzero;fill:#a56f62;fill-opacity:1"/><path d="M121.5 91.23a4.296 4.296 0 0 1 2.281 2.793s.719-2.453-2.281-2.793Zm0 0" style="stroke:none;fill-rule:nonzero;fill:#8c5c53;fill-opacity:1"/><path d="M128.66 92.766a9.9 9.9 0 0 0-.469-.641c-3.117-.715-4.894.305-4.976.352l.254.43s1.922-1.083 5.191-.141Zm-1.765-1.825c-2.774-.46-4.434.543-4.5.594l.265.426s1.942-1.188 5.094-.332a5.394 5.394 0 0 0-.86-.688Zm2.359 2.848c-2.328-.953-5.45-.5-5.594-.5l.074.5c.036 0 3.407-.465 5.61.59.031-.2 0-.406-.09-.59Zm0 0" style="stroke:none;fill-rule:nonzero;fill:#8c5c53;fill-opacity:1"/><path d="M83.86 128.434h-5.024c-5.543.02-10.035 4.507-10.05 10.05.015 5.543 4.507 10.032 10.05 10.047h5.023c5.536-.02 10.02-4.496 10.047-10.031-.008-5.547-4.5-10.047-10.047-10.066Zm0 0" style="stroke:none;fill-rule:nonzero;fill:#3e3d5e;fill-opacity:1"/><path d="M83.54 238.5s-1.669 1.5 0 8.953c0 0 16.323 2.809 26.858 0 0 0 .922-7.11-7.898-8.074-6.3-.61-12.629-.906-18.96-.879Zm0 0" style="stroke:none;fill-rule:nonzero;fill:#4a94ff;fill-opacity:1"/><path d="M83.54 238.5s8.573-.074 16.815.664c-10.07 6.777-15.308 2.66-17.27.25.075-.336.231-.652.454-.914Zm0 0" style="stroke:none;fill-rule:nonzero;fill:#4078bc;fill-opacity:1"/><path d="M220.797 495s-23.344 5.258-53.719 0" style="fill:none;stroke-width:3;stroke-linecap:round;stroke-linejoin:round;stroke:#fff;stroke-opacity:1;stroke-miterlimit:4" transform="scale(.5)"/><path d="M174.102 286s13.78 92.438 4.296 193.18" style="fill:none;stroke-width:22;stroke-linecap:butt;stroke-linejoin:miter;stroke:#3e3d5e;stroke-opacity:1;stroke-miterlimit:10" transform="scale(.5)"/><path d="M67.871 240.41s-1.668 1.5 0 8.95c0 0 16.328 2.812 26.86 0 0 0 .925-7.11-7.903-8.075-6.3-.61-12.629-.902-18.957-.875Zm0 0" style="stroke:none;fill-rule:nonzero;fill:#83c1ff;fill-opacity:1"/><path d="M67.871 240.41s8.574-.074 16.813.664c-10.063 6.778-15.309 2.66-17.262.246.07-.336.226-.648.45-.91Zm0 0" style="stroke:none;fill-rule:nonzero;fill:#4a94ff;fill-opacity:1"/><path d="M189.46 498.719s-23.35 5.273-53.718 0" style="fill:none;stroke-width:3;stroke-linecap:round;stroke-linejoin:round;stroke:#fff;stroke-opacity:1;stroke-miterlimit:4" transform="scale(.5)"/><path d="M152.703 287.523s3.844 94.735-5.633 195.477" style="fill:none;stroke-width:22;stroke-linecap:butt;stroke-linejoin:miter;stroke:#3e3d5e;stroke-opacity:1;stroke-miterlimit:10" transform="scale(.5)"/><path d="M69.145 136a33.703 33.703 0 0 0 17.39 1.953 32.08 32.08 0 0 0 7-1.953V94.422a6.84 6.84 0 0 0-6.84-6.844H76a6.84 6.84 0 0 0-6.84 6.844Zm0 0" style="stroke:none;fill-rule:nonzero;fill:#f5faff;fill-opacity:1"/><path d="M85.578 87.578h1.113a6.84 6.84 0 0 1 6.84 6.844V136a32.08 32.08 0 0 1-7 1.953l-.902.121Zm-9.578 0h2.047l-.887 50.473a35.591 35.591 0 0 1-8-2.063V94.422A6.84 6.84 0 0 1 76 87.578Zm0 0" style="stroke:none;fill-rule:nonzero;fill:#d9e6ff;fill-opacity:1"/><path d="M81.645 93.363c-4.645 0-8.442-2-8.668-4.558l.285-.168c.066 2.449 3.797 4.433 8.383 4.433 4.359 0 7.949-1.789 8.355-4.074l.254.188c-.555 2.355-4.2 4.18-8.61 4.18Zm0 0" style="stroke:none;fill-rule:nonzero;fill:#7e92a8;fill-opacity:1"/><path d="M75.363 88.176c0 1.863 2.848 3.375 6.356 3.375 3.511 0 6.36-1.5 6.36-3.375s-2.849-2.32-6.36-2.32c-3.508 0-6.356.46-6.356 2.32Zm0 0" style="stroke:none;fill-rule:nonzero;fill:#a56f62;fill-opacity:1"/><path d="m86.363 86.273 8.5 3.563 2.121 45.098a4.43 4.43 0 0 1-2.554 4.23 4.431 4.431 0 0 1-4.14-.207 4.45 4.45 0 0 1-2.161-3.535c-.61-9.973-1.707-28.067-1.707-29.586 0-2.117-.059-19.563-.059-19.563Zm0 0" style="stroke:none;fill-rule:nonzero;fill:#6bddbc;fill-opacity:1"/><path d="m85.422 84.09 1.812.445L91.2 92l-3.926-.836-.875 1.707-1.003-6.785Zm0 0" style="stroke:none;fill-rule:nonzero;fill:#3a9b9b;fill-opacity:1"/><path d="m76.656 86.273-8.5 3.563-2.12 45.098a4.43 4.43 0 0 0 2.554 4.23 4.431 4.431 0 0 0 6.297-3.742c.613-9.973 1.715-28.067 1.715-29.586 0-2.117.054-19.563.054-19.563Zm0 0" style="stroke:none;fill-rule:nonzero;fill:#6bddbc;fill-opacity:1"/><path d="m77.594 84.09-1.809.445L71.82 92l3.926-.836.875 1.707 1.004-6.785Zm0 0" style="stroke:none;fill-rule:nonzero;fill:#3a9b9b;fill-opacity:1"/><path d="M66 66.426c0 .465-.477.953-.426 1.402.051.453.621.832.723 1.277.098.446-.25 1.032-.106 1.461.145.43.786.672 1 1.09.215.414-.03 1.055.207 1.45.243.394.907.5 1.188.863.277.367.18 1.035.5 1.375.32.34 1 .312 1.328.62.332.31.371 1 .742 1.266.367.266 1.024.125 1.414.372.39.242.54.902.95 1.113.41.21 1.035-.05 1.46.125.426.176.68.805 1.122.945.437.14 1-.215 1.457-.11.46.106.8.68 1.261.755.461.074.961-.375 1.426-.34.465.035.895.55 1.356.55.457 0 .902-.5 1.359-.55.453-.05.973.41 1.426.34.449-.07.812-.649 1.254-.754.437-.106 1.03.25 1.46.11.43-.141.7-.77 1.126-.946.421-.176 1.046.086 1.457-.125.41-.211.562-.871.945-1.113.387-.247 1.055-.098 1.422-.372.363-.277.398-.96.738-1.265.34-.305 1-.281 1.324-.621.328-.34.223-1 .5-1.38.282-.378.953-.468 1.188-.859.234-.39 0-1.035.21-1.449.208-.418.829-.656.973-1.09.145-.437-.203-1-.105-1.46.101-.461.672-.817.723-1.278.046-.457-.422-.937-.422-1.402 0-.465.468-.95.422-1.403-.051-.449-.622-.828-.723-1.273-.098-.445.258-1.031.105-1.46-.148-.43-.785-.677-1-1.09-.214-.415.032-1.055-.203-1.45-.234-.395-.91-.5-1.187-.863-.274-.367-.18-1.035-.5-1.375-.32-.34-1-.313-1.324-.621-.325-.313-.375-1-.739-1.266-.367-.266-1.027-.125-1.422-.371-.394-.242-.535-.902-.945-1.113-.41-.211-1.035.05-1.46-.125-.423-.176-.68-.805-1.118-.946-.441-.14-1 .215-1.465.11-.465-.106-.797-.68-1.258-.754-.457-.074-.965.375-1.422.34-.46-.036-.894-.551-1.363-.551-.465 0-.898.5-1.351.55-.457.051-.977-.41-1.426-.34-.45.071-.817.65-1.262.755-.445.105-1-.25-1.46-.11-.458.14-.7.77-1.118.946-.422.175-1.055-.086-1.461.125-.406.21-.559.87-.95 1.113-.39.246-1.05.098-1.413.371-.367.273-.407.96-.742 1.266-.336.304-1 .28-1.329.62-.332.34-.222 1-.5 1.38-.28.379-.953.468-1.187.859-.234.39 0 1.035-.207 1.45-.211.413-.832.655-1 1.09-.172.437.203 1 .101 1.46-.097.46-.664.816-.718 1.273-.055.461.445.942.445 1.403Zm0 0" style="stroke:none;fill-rule:nonzero;fill:#323244;fill-opacity:1"/><path d="M85.66 86.426c0-11.11-1.8-5.336-4-5.336s-4-5.059-4 5.336c0 3.894 1.793 3.558 4 3.558 2.203 0 4 .336 4-3.558Zm0 0" style="stroke:none;fill-rule:nonzero;fill:#a56f62;fill-opacity:1"/><path d="M77.71 83.18c.38-5.95 2-2.09 3.935-2.09 2.144 0 3.902-5.414 4 4.332-3.418 1.348-6.086-.223-7.934-2.242Zm0 0" style="stroke:none;fill-rule:nonzero;fill:#8c5c53;fill-opacity:1"/><path d="M83.305 61.871h-4a5.71 5.71 0 0 0-5.696 5.7v8.292a8 8 0 0 0 7.957 7.961 8.001 8.001 0 0 0 7.934-7.96V68.07a6.218 6.218 0 0 0-6.195-6.199Zm0 0" style="stroke:none;fill-rule:nonzero;fill:#a56f62;fill-opacity:1"/><path d="M73.594 67.57a5.71 5.71 0 0 1 5.695-5.699h4c1.219 0 2.41.36 3.422 1.04 0 .05.027.1.035.148l.129-.036A6.208 6.208 0 0 1 89.5 68.07v2.54a2.264 2.264 0 0 1-2-3.074h-.047a2.292 2.292 0 0 1-2.27-2 2.074 2.074 0 0 1-.671.112c-.73 0-1.418-.347-1.848-.937a2.252 2.252 0 0 1-2.875-.05c-.43.487-1.05.765-1.7.765a2.015 2.015 0 0 1-.304-.031 2.288 2.288 0 0 1-1.297 1.386 2.266 2.266 0 0 1-1.203 1.684c.067.207.102.422.106.64a2.3 2.3 0 0 1-1.782 2.23Zm0 0" style="stroke:none;fill-rule:nonzero;fill:#8c5c53;fill-opacity:1"/><path d="M72.328 68.79a1.497 1.497 0 0 1 .723-2.653 1.502 1.502 0 0 1-.387-1.645c.219-.574.77-.957 1.387-.96a1.5 1.5 0 0 1 1.469-1.805c.14 0 .277.023.41.062.16-.492.562-.863 1.066-.988a1.495 1.495 0 0 1 1.402.379 1.502 1.502 0 0 1 1.22-.73c.503-.024.984.206 1.28.616a1.51 1.51 0 0 1 1.207-.62c.56 0 1.075.316 1.329.816a1.498 1.498 0 0 1 1.554-.426c.555.172.961.648 1.043 1.223a1.509 1.509 0 0 1 1.582-.18c.516.25.848.77.852 1.348-.004.168-.035.34-.094.5.23-.141.496-.215.766-.215a1.499 1.499 0 0 1 1 2.613c.695.145 1.199.758 1.199 1.469a1.512 1.512 0 0 1-.57 1.168c.629.254 1.007.894.925 1.566a1.504 1.504 0 0 1-1.27 1.309 1.5 1.5 0 0 1-1.155-2.657 1.51 1.51 0 0 1-.907-1.132 1.5 1.5 0 0 1 .477-1.368 1.497 1.497 0 0 1-1.195-1.468c0-.18.03-.36.093-.528a1.5 1.5 0 0 1-2.266-1.09 1.501 1.501 0 0 1-1.245.286 1.505 1.505 0 0 1-1.012-.785c-.3.335-.738.52-1.188.5a1.486 1.486 0 0 1-1.136-.606 1.508 1.508 0 0 1-1.211.617c-.395 0-.77-.156-1.051-.43-.27.454-.758.731-1.285.735a1.48 1.48 0 0 1-.414-.066 1.502 1.502 0 0 1-1.395 1.035 1.5 1.5 0 0 1-1.266 1.809c.313.284.497.683.5 1.105 0 .601-.363 1.148-.913 1.383.363.28.574.714.578 1.171a1.5 1.5 0 1 1-2.09-1.378Zm0 0" style="stroke:none;fill-rule:nonzero;fill:#323244;fill-opacity:1"/><path d="m84.879 70.148-1.313-.5a.792.792 0 0 1-.46-1 .79.79 0 0 1 1-.453l1.32.5a.793.793 0 0 1 .453 1 .793.793 0 0 1-1 .453Zm-6.238-.41-1.27.617a.795.795 0 0 1-.691-1.43l1.27-.616a.8.8 0 0 1 1.062.37.795.795 0 0 1-.371 1.06Zm0 0" style="stroke:none;fill-rule:nonzero;fill:#3e3d5e;fill-opacity:1"/><path d="M80.422 74.953s1.828.332 1.832.676c.008.348-.879.5-1.125.36a4.264 4.264 0 0 1-.707-1.036Zm0 0" style="stroke:none;fill-rule:nonzero;fill:#8c5c53;fill-opacity:1"/><path d="M81.895 71c-.196.406-.383.82-.555 1.238-.168.422-.352.836-.5 1.262-.149.426-.324.844-.469 1.273l-.027.082a.227.227 0 0 0 0 .125c.011.028.023.051.043.075.043.054.09.101.144.144a3.39 3.39 0 0 0 .914.496c-.156-.175-.32-.324-.5-.5-.086-.074-.16-.156-.234-.23-.031-.031-.063-.063-.086-.102v.043l.035-.082c.16-.418.305-.84.45-1.265.144-.422.277-.856.406-1.286.129-.43.27-.847.379-1.273Zm0 0" style="stroke:none;fill-rule:nonzero;fill:#34344f;fill-opacity:1"/><path d="M85.406 71.754a.876.876 0 0 1-1.75 0c0-.48.39-.875.875-.875.48 0 .875.394.875.875Zm-6.23 0c0 .484-.39.875-.875.875a.876.876 0 0 1 0-1.75c.48.004.87.394.875.875Zm0 0" style="stroke:none;fill-rule:nonzero;fill:#323244;fill-opacity:1"/><path d="M88.629 72.41c-.242 1.5.371 2.856 1.367 3.043.992.192 2-.863 2.242-2.36.246-1.491-.367-2.855-1.363-3.042-.996-.192-2.004.863-2.246 2.36Zm0 0" style="stroke:none;fill-rule:nonzero;fill:#a56f62;fill-opacity:1"/><path d="M89.684 72.559a.894.894 0 0 0-.454.043.262.262 0 0 0 0-.079c.16-1 .825-1.683 1.5-1.558.676.125 1.067 1.031.907 2a1.894 1.894 0 0 1-1.035 1.5c.125-.926-.278-1.785-.918-1.906Zm0 0" style="stroke:none;fill-rule:nonzero;fill:#8c5c53;fill-opacity:1"/><path d="M74.684 72.41c.246 1.5-.368 2.856-1.364 3.043-.996.192-2-.863-2.246-2.36-.246-1.491.371-2.855 1.367-3.042.993-.192 2.004.863 2.243 2.36Zm0 0" style="stroke:none;fill-rule:nonzero;fill:#a56f62;fill-opacity:1"/><path d="M73.629 72.559a.836.836 0 0 1 .45.043v-.079c-.157-1-.825-1.683-1.5-1.558-.673.125-1.063 1.031-.903 2 .066.644.457 1.21 1.035 1.5-.121-.926.289-1.785.918-1.906Zm4.101 3.562a.435.435 0 0 1 .22-.387.434.434 0 0 1 .445.016l-.317.176c.426.46 2.242 2.062 6.149 1.3 0 0-1.266.829-3.668.305-1.883-.418-2.399-1.234-2.536-1.57Zm0 0" style="stroke:none;fill-rule:nonzero;fill:#8c5c53;fill-opacity:1"/><path d="M163.75 143.5c0 3.469 2.36 6.281 5.273 6.281 2.907 0 5.274-2.812 5.274-6.281s-2.36-6.273-5.274-6.273c-2.921 0-5.273 2.773-5.273 6.273Zm-12.453 0c0 3.469 2.36 6.281 5.281 6.281 2.922 0 5.281-2.812 5.281-6.281s-2.367-6.273-5.28-6.273c-2.907 0-5.282 2.773-5.282 6.273Zm.406-2.25-3.922-1.39m26.172 1.39 4.797-1.453m-17.328 1.062h2.75" style="fill:none;stroke-width:1;stroke-linecap:butt;stroke-linejoin:miter;stroke:#ff5050;stroke-opacity:1;stroke-miterlimit:10" transform="scale(.5)"/><path d="m250.797 85.684-8.652 17.043a3.25 3.25 0 0 1-4.372 1.425 3.252 3.252 0 0 1-1.289-4.617l10.075-16.234a2.435 2.435 0 0 1 4.238 2.383Zm0 0" style="stroke:none;fill-rule:nonzero;fill:#ffb692;fill-opacity:1"/><path d="m256.387 108.95-17.934-4.524a3.406 3.406 0 1 1 1.668-6.605h.055l17.847 4.843a3.24 3.24 0 1 1-1.636 6.27Zm0 0" style="stroke:none;fill-rule:nonzero;fill:#ffb692;fill-opacity:1"/><path d="m258.023 102.68-8.242-2.239-2.93 6.106 9.536 2.402a3.24 3.24 0 1 0 1.637-6.27Zm0 0" style="stroke:none;fill-rule:nonzero;fill:#d88d87;fill-opacity:1"/><path d="m248.262 108.676 2.535-9.317 6.86 1.868c2.57.699 4.09 3.351 3.394 5.921a4.832 4.832 0 0 1-5.93 3.399Zm0 0" style="stroke:none;fill-rule:nonzero;fill:#6a3999;fill-opacity:1"/><path d="M255.64 77.594h-3l-4.687 3.312s-2.348 4.715-2.457 5.672c-.07.598 1.742 1.07 3.133 1.352a2.238 2.238 0 0 0 2.34-1.024l.601-.976s3.16-2.57 3.621-3.407c.457-.832-1.636-3.226-1.636-3.226l2.183-.598 1.274.211a.457.457 0 0 0 .191-.89Zm0 0" style="stroke:none;fill-rule:nonzero;fill:#ffb692;fill-opacity:1"/><path d="M254.16 83.676a25.242 25.242 0 0 1-1.691-3.586l2.203 3.086c-.172.152-.328.324-.512.5Zm-1.265 1.14c-1.336-2.332-1.34-2.41-1.72-3.652l2.266 3.176c-.187.16-.367.324-.546.476Zm-3.465-1.39c.28.59.808 1.027 1.441 1.187 0 0-1.543.121-1.441-1.187Zm0 0" style="stroke:none;fill-rule:nonzero;fill:#d88d87;fill-opacity:1"/><path d="M249.797 84.238a.42.42 0 0 0-.379-.101.41.41 0 0 0-.297.25Zm0 0" style="stroke:none;fill-rule:nonzero;fill:#d88d87;fill-opacity:1"/><path d="M251.5 86s-2.16-.215-2.32-.82a1.544 1.544 0 0 1-.078-.809s-.399.766-.211 1.14c.183.376 2.343.919 2.343.919Zm0 0" style="stroke:none;fill-rule:nonzero;fill:#d88d87;fill-opacity:1"/><path d="M255.89 145.05c-.199.54-.359 1.028-.535 1.5-.175.47-.32 1-.468 1.5-.317 1-.586 2-.848 3-.55 2-1 4-1.394 6-.395 2-.735 4.036-1.055 6.06-.32 2.027-.543 4.062-.754 6.1-.211 2.04-.383 4.075-.445 6.126-.067 2.05.054 4.098.203 6.152.062 1.028.191 2.051.293 3.078.097 1.024.183 2.043.277 3.063.137 2.043.285 4.082.324 6.117.067 4.063-.441 8.16-.5 12.258 0 1 .067 2.047.157 3.066l.125 1.532.16 1.523c.12 1 .246 2.035.398 3.047l.559 3.027c.386 2 .68 4.04 1 6.063l1.047 6.043.5 3.023.62 3c.216 1 .41 2 .602 3 .188 1 .39 2 .57 3L265 240.5c-.219-.95-.426-1.91-.625-2.863-.2-.957-.414-1.918-.602-2.875l-.574-2.883c-.168-.965-.293-1.938-.43-2.91l-.769-5.84a89.248 89.248 0 0 1-.371-5.879l-.106-2.941c0-1 0-1.965-.039-2.946a71.832 71.832 0 0 0-.394-5.863c-.16-1.953-.465-3.906-.73-5.863a37.244 37.244 0 0 1-.372-5.899c-.027-3.937.688-7.875 1.34-11.77.367-1.948.668-3.894.848-5.843.18-1.95.344-3.898.5-5.855.05-1 .152-1.95.23-2.926l.203-2.93c.153-1.953.301-3.91.426-5.863.125-1.957.266-3.914.39-5.871.044-1 .13-1.953.169-2.934l.082-1.46c0-.5.05-.977.054-1.415Zm0 0" style="stroke:none;fill-rule:nonzero;fill:#ffb692;fill-opacity:1"/><path d="M265.969 241.219a185.657 185.657 0 0 1-3.61-20.332s-6.836.886-10 .386l3.778 20.946Zm0 0" style="stroke:none;fill-rule:nonzero;fill:#f5faff;fill-opacity:1"/><path d="M266.695 238.684s1.664 1.5 0 8.953c0 0-11.324 2.808-21.86 0 0 0-1.42-7.114 7.4-8.078 4.8-.563 9.628-.856 14.46-.875Zm0 0" style="stroke:none;fill-rule:nonzero;fill:#f29538;fill-opacity:1"/><path d="M489.672 495.273s13.351 5.266 43.719 0" style="fill:none;stroke-width:3;stroke-linecap:round;stroke-linejoin:round;stroke:#fff;stroke-opacity:1;stroke-miterlimit:4" transform="scale(.5)"/><path d="M261.406 181.426c-.031.183-.062.363-.097.543-.653 3.894-1.368 7.832-1.34 11.77v.5a39.198 39.198 0 0 1-8.617-3.65c-.055-.968-.125-1.944-.192-2.917a68.28 68.28 0 0 0-.281-3.067c-.113-1.027-.23-2.05-.29-3.074v-.187Zm0 0" style="stroke:none;fill-rule:nonzero;fill:#d88d87;fill-opacity:1"/><path d="M270.613 147.05c-.203.54-.363 1.028-.535 1.5-.168.47-.316 1-.473 1.5-.316 1-.585 2-.843 3-.551 2-.977 4-1.399 6-.418 2-.734 4.036-1.047 6.06-.316 2.027-.55 4.062-.757 6.1-.204 2.04-.38 4.075-.446 6.126-.062 2.05.051 4.098.203 6.152.059 1.028.196 2.051.29 3.078l.285 3.063c.132 2.043.285 4.082.32 6.117.062 4.063-.441 8.16-.5 12.258 0 1 .07 2.047.152 3.066l.125 1.532.168 1.523c.117 1 .239 2.035.395 3.047l.554 3.027c.395 2 .684 4.04 1 6.063l1.043 6.043.5 3.023.625 3c.211 1 .407 2 .602 3s.39 2 .566 3l8.286-1.898c-.223-.95-.422-1.91-.625-2.864-.207-.957-.41-1.918-.598-2.875l-.574-2.882c-.168-.965-.301-1.938-.434-2.91l-.793-5.829a89.24 89.24 0 0 1-.363-5.879l-.11-2.941c0-1 0-1.965-.039-2.945a75.37 75.37 0 0 0-.394-5.864c-.207-1.953-.469-3.906-.727-5.867a36.71 36.71 0 0 1-.37-5.894c-.036-3.942.679-7.875 1.335-11.77.363-1.95.664-3.894.844-5.844.18-1.953.348-3.902.5-5.855.055-1 .16-1.95.23-2.926l.207-2.93c.153-1.953.293-3.91.422-5.867.157-1.949.274-3.914.39-5.867.052-1 .134-1.957.177-2.937l.074-1.457c0-.5.05-.977.055-1.418Zm0 0" style="stroke:none;fill-rule:nonzero;fill:#ffb692;fill-opacity:1"/><path d="M276.441 181.57c-.125.801-.261 1.602-.41 2.399-.582 3.472-1.21 6.972-1.316 10.476a25.575 25.575 0 0 1-8.5.864c-.05-1.883-.18-3.77-.305-5.66-.094-1-.172-2.04-.285-3.063-.113-1.027-.23-2.05-.29-3.074a91.54 91.54 0 0 1-.12-2.051Zm0 0" style="stroke:none;fill-rule:nonzero;fill:#d88d87;fill-opacity:1"/><path d="M280.691 243.219a184.743 184.743 0 0 1-3.613-20.332s-6.832.886-10 .386l3.781 20.946Zm0 0" style="stroke:none;fill-rule:nonzero;fill:#f5faff;fill-opacity:1"/><path d="M281.414 240.684s1.672 1.5 0 8.953c0 0-11.324 2.808-21.86 0 0 0-1.417-7.114 7.4-8.078 4.8-.563 9.628-.856 14.46-.875Zm0 0" style="stroke:none;fill-rule:nonzero;fill:#f4c85b;fill-opacity:1"/><path d="M519.11 499.273s13.35 5.266 43.718 0" style="fill:none;stroke-width:3;stroke-linecap:round;stroke-linejoin:round;stroke:#fff;stroke-opacity:1;stroke-miterlimit:4" transform="scale(.5)"/><path d="M279.5 140.5s2 10.941-1.863 47.387c0 0-16.336 3-28.114 0 0 0-.808-23.328 5.598-47.387Zm0 0" style="stroke:none;fill-rule:nonzero;fill:#3e3d5e;fill-opacity:1"/><path d="M275.766 140.5h1.035c.5 6.941.426 21.234-3.555 48l-1.031.113c4-26.832 4.039-41.234 3.55-48.113Zm0 0" style="stroke:none;fill-rule:nonzero;fill:#507096;fill-opacity:1"/><path d="M270.71 75c-5.874-4.57-13.769.426-13.312 6.281.461 5.856-5.671 13.633-2.804 17.5 2.87 3.864 8.027 2.57 9 .785.976-1.785 7.117 4.286 11.293.145 0 0 8.09.426 5.933-9.07-2.156-9.496-1.957-17.27-10.11-15.641Zm0 0" style="stroke:none;fill-rule:nonzero;fill:#323244;fill-opacity:1"/><path d="M280.32 110c1-4.55-2-9.148-6.629-9.73a8.472 8.472 0 0 0-.941-.067h-10.64a6.913 6.913 0 0 0-6.9 6.961v.082a4.281 4.281 0 0 1-.534 2.14 7.19 7.19 0 0 0 2.133 9.348 30.73 30.73 0 0 1 .363 4.395c0 5.574-2.89 11.84-2.89 17.418 4.5 1.441 13.75 2.863 21.722 1.328 1.516-.324 3-.766 4.441-1.328l-3.054-17.477Zm0 0" style="stroke:none;fill-rule:nonzero;fill:#9129e3;fill-opacity:1"/><path d="M258.727 119.059c13.222-2.278 13.445 3.332 6.75 3.222-6.696-.11-6.75-3.222-6.75-3.222Zm0 0" style="stroke:none;fill-rule:nonzero;fill:#6a3999;fill-opacity:1"/><path d="M272.5 101.586c0 1.5-2.41 2.68-5.387 2.68-2.972 0-5.383-1.2-5.383-2.68 0-1.48 2.41-1.848 5.383-1.848 2.977 0 5.387.367 5.387 1.848Zm0 0" style="stroke:none;fill-rule:nonzero;fill:#ffb692;fill-opacity:1"/><path d="M271.234 100.352c0-11.114-1.793-5.34-4-5.34-2.203 0-4-5.059-4 5.34 0 3.894 1.797 3.554 4 3.554 2.207 0 4 .34 4-3.554Zm0 0" style="stroke:none;fill-rule:nonzero;fill:#ffb692;fill-opacity:1"/><path d="M263.29 97.105c.374-5.949 2-2.093 3.929-2.093 2.152 0 3.902-5.41 4 4.328-3.418 1.355-6.082-.215-7.93-2.235Zm0 0" style="stroke:none;fill-rule:nonzero;fill:#d88d87;fill-opacity:1"/><path d="M260.93 86.5c.246 1.523-.38 2.922-1.399 3.11-1.02.19-2.05-.883-2.297-2.41-.246-1.524.38-2.919 1.403-3.114 1.02-.195 2.043.867 2.293 2.414Zm0 0" style="stroke:none;fill-rule:nonzero;fill:#ffb692;fill-opacity:1"/><path d="M259.852 86.637a.868.868 0 0 1 .457.043v-.078c-.164-1-.84-1.723-1.5-1.59-.66.129-1.082 1.043-.922 2.054a1.923 1.923 0 0 0 1.054 1.555c-.156-.98.25-1.86.91-1.984Zm0 0" style="stroke:none;fill-rule:nonzero;fill:#d88d87;fill-opacity:1"/><path d="M521.781 181.453c0-2.586-1.328-4.672-3-4.672" style="fill:none;stroke-width:1;stroke-linecap:round;stroke-linejoin:round;stroke:#fbb03b;stroke-opacity:1;stroke-miterlimit:4" transform="scale(.5)"/><path d="M268.66 75.355h-4.11a5.845 5.845 0 0 0-5.823 5.829v8.5a8.155 8.155 0 0 0 8.132 8.132c4.496-.007 8.137-3.656 8.141-8.152v-7.969a6.354 6.354 0 0 0-6.34-6.34Zm0 0" style="stroke:none;fill-rule:nonzero;fill:#ffb692;fill-opacity:1"/><path d="M258.727 81.297v-.113a5.845 5.845 0 0 1 5.824-5.829h4.11a6.36 6.36 0 0 1 6.304 5.75c-6.684 4.192-12.504 2.434-16.238.192Zm0 0" style="stroke:none;fill-rule:nonzero;fill:#d88d87;fill-opacity:1"/><path d="M268.129 79.703c-3.969 5.75-10.07 4.957-11.805.75-1.773-4.305 3.446-13.277 12.57-6 0 0 6-1.598 7.122 3.5 1.12 5.102-1.567 7.23-1.567 7.23s-2.164.153-2.308-4.25c0 .02-3.563 1.008-4.012-1.23Zm0 0" style="stroke:none;fill-rule:nonzero;fill:#323244;fill-opacity:1"/><path d="m270.5 84.29-1.344-.5a.82.82 0 0 1-.472-1.052.819.819 0 0 1 1.05-.465l1.344.5a.82.82 0 0 1 .469 1.051.811.811 0 0 1-1.047.465Zm-6.453-.419-1.297.629a.815.815 0 0 1-1.086-.375.816.816 0 0 1 .383-1.086l1.293-.629a.82.82 0 0 1 1.086.38.816.816 0 0 1 .035.62.815.815 0 0 1-.414.461Zm0 0" style="stroke:none;fill-rule:nonzero;fill:#323244;fill-opacity:1"/><path d="M264.969 88.754s1.87.34 1.883.691c.007.352-.903.5-1.153.364a4.387 4.387 0 0 1-.73-1.055Zm0 0" style="stroke:none;fill-rule:nonzero;fill:#b77d69;fill-opacity:1"/><path d="M266.5 84.695c-.2.418-.395.84-.57 1.27-.176.43-.356.855-.5 1.285-.145.43-.328.863-.5 1.305l-.024.082a.183.183 0 0 0 0 .129c.008.027.02.05.04.074.042.058.093.11.148.148.094.078.195.149.3.207.2.121.415.223.637.301-.16-.176-.332-.336-.5-.5l-.234-.234a.516.516 0 0 1-.086-.102v.043l.027-.078c.168-.43.317-.863.461-1.297.145-.43.285-.875.422-1.308.133-.434.242-.875.379-1.325Zm3.465.805a.893.893 0 0 1-.55.832.905.905 0 0 1-.978-.191.897.897 0 0 1 .633-1.531c.493 0 .89.398.895.89Zm0 0" style="stroke:none;fill-rule:nonzero;fill:#34344f;fill-opacity:1"/><path d="M269.66 85.746c.13.309.918.18 1.102-.543l-.461.133-.64-.5Zm-5.48-.246a.895.895 0 0 1-.547.832.91.91 0 0 1-.98-.191.897.897 0 0 1 .633-1.531c.491 0 .89.398.894.89Zm0 0" style="stroke:none;fill-rule:nonzero;fill:#34344f;fill-opacity:1"/><path d="M262.71 85.746c-.132.309-.92.18-1.1-.543l.46.133.64-.5Zm2.196 4.973a20.511 20.511 0 0 0 4-1.43c.922-.453 1.867.68 1.457 1.77a3.789 3.789 0 0 1-2.933 2.597c-1.356.242-2.254-.031-2.86-.5-.855-.633-.629-2.191.336-2.437Zm0 0" style="stroke:none;fill-rule:nonzero;fill:#34344f;fill-opacity:1"/><path d="M267.43 93.656a3.789 3.789 0 0 0 2.933-2.597c.063-.16.094-.329.098-.5a3.866 3.866 0 0 0-2.45.086 3.732 3.732 0 0 0-2.566 2.933c.645.184 1.328.211 1.985.078Zm0 0" style="stroke:none;fill-rule:nonzero;fill:#ef8484;fill-opacity:1"/><path d="M266.5 92.371c.191.266.816.16 1.395-.234.582-.399.902-.934.71-1.196-.19-.265-.816-.16-1.402.235-.582.394-.883.93-.703 1.195Zm0 0" style="stroke:none;fill-rule:nonzero;fill:#ffabab;fill-opacity:1"/><path d="M264.906 90.719a20.511 20.511 0 0 0 4-1.43c.262-.117.563-.121.828-.012.266.114.473.328.575.598a7.683 7.683 0 0 1-3.5 2 8.645 8.645 0 0 1-2.739.324 1.324 1.324 0 0 1 .836-1.48Zm0 0" style="stroke:none;fill-rule:nonzero;fill:#fff;fill-opacity:1"/><path d="M273.7 86.129c-.247 1.527.378 2.922 1.402 3.117 1.02.195 2.043-.89 2.293-2.418.25-1.523-.38-2.918-1.399-3.113-1.02-.195-2.047.89-2.297 2.414Zm0 0" style="stroke:none;fill-rule:nonzero;fill:#ffb692;fill-opacity:1"/><path d="M274.781 86.285a.857.857 0 0 0-.465.04v-.075c.164-1 .844-1.727 1.5-1.594.653.13 1.082 1.047.918 2.055a1.932 1.932 0 0 1-1.054 1.555c.164-.98-.246-1.856-.899-1.98Zm0 0" style="stroke:none;fill-rule:nonzero;fill:#d88d87;fill-opacity:1"/><path d="M277.559 77.715c-2.11 1.23-4.813 2.32-5.235.176 0 0-3.926 2.109-4.035-1.118 0 0-9.223 9.704-11.793-.789a6.272 6.272 0 0 0-.262 4.211c3.582 3.227 6.754 2.145 11.57-2.12 0 0 .04 2.222 4.118.741 0 0 .629 2.758 5.918-.546a8.188 8.188 0 0 0-.281-.555Zm0 0" style="stroke:none;fill-rule:nonzero;fill:#4c4c72;fill-opacity:1"/><path d="m274.434 110.066 3.73-6.73 14.297 10.07a4.314 4.314 0 0 1 1.148 5.848l-12.054 18.805-4.18-2.434 8.594-17.945Zm0 0" style="stroke:none;fill-rule:nonzero;fill:#ffb692;fill-opacity:1"/><path d="m285.586 108.559-7.422-5.223-3.73 6.73 8.867 5.856Zm0 0" style="stroke:none;fill-rule:nonzero;fill:#d88d87;fill-opacity:1"/><path d="M280.344 138.664a4.88 4.88 0 0 1-2.285-.5 5.229 5.229 0 0 1-1.047-.617c-.442-.313-1.399-.602-2.91.914-1.918 1.91-4.723-2.625-4.551-4.637.168-2.008 3.394-4.058 4.719-4 1.324.063 5.753 1.11 5.753 1.11s2.262 2.96 2 5.953a1.877 1.877 0 0 1-1.68 1.777Zm0 0" style="stroke:none;fill-rule:nonzero;fill:#ffb692;fill-opacity:1"/><path d="M271.676 138.281c.719-1.176 2.054-3.304 2.426-3.5.5-.258 3.804-.152 4.5.578 0 0-3.438-.539-3.93-.05a36.057 36.057 0 0 0-2.188 3.476 2.99 2.99 0 0 1-.808-.504Zm0 0" style="stroke:none;fill-rule:nonzero;fill:#d88d87;fill-opacity:1"/><path d="M270.11 136.102c.84-1 2.71-3.102 3.128-3.23.551-.173 3.813-.032 4.938.722 0 0-3.903-.5-4.473-.11-.5.344-2.527 2.852-3.082 3.536a7.532 7.532 0 0 1-.512-.918Zm0 0" style="stroke:none;fill-rule:nonzero;fill:#d88d87;fill-opacity:1"/><path d="M277.75 132s-3.754-.96-4.363-.629c-.532.285-3.106 2.524-3.797 3.129a2.872 2.872 0 0 1-.04-.684c.016-.144.04-.285.079-.421 1-.91 2.957-2.622 3.371-2.696.566-.078 3.73.547 4.75 1.301Zm0 0" style="stroke:none;fill-rule:nonzero;fill:#d88d87;fill-opacity:1"/><path d="m286.855 108.066-5.894 7.649-5.637-4.34a4.824 4.824 0 0 1-.875-6.77 4.824 4.824 0 0 1 6.77-.878Zm0 0" style="stroke:none;fill-rule:nonzero;fill:#6a3999;fill-opacity:1"/></svg>